<?xml version="1.0" encoding="UTF-8"?>
<svg enable-background="new 0 0 841.9 595.3" version="1.1" viewBox="0 0 841.9 595.3" xmlns="http://www.w3.org/2000/svg">
 <style type="text/css">.Grafikstil_x0020_5{fill:url(#ci);} .Grafikstil_x0020_7{fill:url(#ct);} .Grafikstil_x0020_16{fill:#FFFFFF;} .st0{fill:url(#bg);} .st1{fill:url(#br);} .st2{fill:url(#bu);} .st3{fill:url(#bv);} .st4{fill:url(#bw);stroke:url(#bx);stroke-width:5;stroke-miterlimit:10;} .st5{fill:url(#cx);} .st6{fill:url(#by);} .st7{fill:#FFFFFF;} .st8{fill:url(#bz);} .st9{fill:url(#ca);} .st10{fill:#F18400;} .st11{fill:url(#cb);} .st12{fill:url(#cc);} .st13{fill:url(#cd);} .st14{opacity:0.46;fill:#FFFFFF;} .st15{fill:url(#ce);} .st16{fill:url(#cf);} .st17{fill:url(#cg);} .st18{fill:url(#ch);} .st19{fill:url(#cj);} .st20{fill:url(#ck);} .st21{fill:url(#cl);} .st22{fill:url(#cm);} .st23{fill:url(#cn);} .st24{fill:url(#co);} .st25{fill:url(#cp);} .st26{fill:url(#cq);} .st27{opacity:0.24;} .st28{fill:#FFF8BC;} .st29{opacity:0.17;fill:url(#cr);} .st30{opacity:0.17;fill:url(#cs);} .st31{opacity:0.17;fill:url(#cu);} .st32{opacity:0.17;fill:url(#cv);} .st33{opacity:0.17;fill:url(#cw);} .st34{opacity:0.17;fill:url(#az);} .st35{opacity:0.17;fill:url(#ba);} .st36{opacity:0.17;fill:url(#bb);} .st37{opacity:0.17;fill:url(#bc);} .st38{opacity:0.17;fill:url(#bd);} .st39{opacity:0.17;fill:url(#be);} .st40{opacity:0.17;fill:url(#bf);} .st41{fill:url(#bh);} .st42{opacity:0.35;fill:url(#bi);} .st43{fill:url(#bj);} .st44{opacity:0.45;} .st45{opacity:0.17;fill:url(#bk);} .st46{opacity:0.17;fill:url(#bl);} .st47{opacity:0.17;fill:url(#bm);} .st48{opacity:0.17;fill:url(#bn);} .st49{opacity:0.17;fill:url(#bo);} .st50{opacity:0.17;fill:url(#bp);} .st51{opacity:0.17;fill:url(#bq);} .st52{opacity:0.17;fill:url(#bs);} .st53{opacity:0.17;fill:url(#bt);}</style>
 <radialGradient id="ci" cx="0" cy="0" r="1" gradientUnits="userSpaceOnUse">
  <stop stop-color="#fff" stop-opacity=".7" offset=".2888"/>
  <stop stop-color="#FFFEFB" stop-opacity=".6033" offset=".4035"/>
  <stop stop-color="#FFFBF1" stop-opacity=".4911" offset=".5364"/>
  <stop stop-color="#FFF6DE" stop-opacity=".3712" offset=".6786"/>
  <stop stop-color="#FFEFC4" stop-opacity=".2458" offset=".8271"/>
  <stop stop-color="#FFE6A0" stop-opacity=".1175" offset=".9793"/>
  <stop stop-color="#FFE59A" stop-opacity=".1" offset="1"/>
 </radialGradient>
 <radialGradient id="ct" cx="0" cy="0" r="1" gradientUnits="userSpaceOnUse">
  <stop stop-color="#432C00" stop-opacity=".6" offset=".284"/>
  <stop stop-color="#472F00" stop-opacity=".5409" offset=".3898"/>
  <stop stop-color="#513700" stop-opacity=".4723" offset=".5125"/>
  <stop stop-color="#604207" stop-opacity=".399" offset=".6438"/>
  <stop stop-color="#72511B" stop-opacity=".3224" offset=".7809"/>
  <stop stop-color="#846230" stop-opacity=".244" offset=".9213"/>
  <stop stop-color="#8D6B3E" stop-opacity=".2" offset="1"/>
 </radialGradient>
 <radialGradient id="bg" cx="522.94" cy="414" r="38.669" gradientTransform="matrix(.9996 .02893 -.02893 .9996 8.1876 -11.618)" gradientUnits="userSpaceOnUse">
  <stop stop-color="#FEF7E4" offset="0"/>
  <stop stop-color="#FBEACC" offset="0"/>
  <stop stop-color="#E7A341" offset="0"/>
  <stop stop-color="#DD8700" offset="0"/>
  <stop stop-color="#EA5602" offset="1"/>
 </radialGradient>
 <path class="st0" d="m562.6 408.6c3.2 7 2.6 15.2 0.3 22.6-2.1 6.9-6.3 13.9-13.3 15.9-5.3 1.5-10.9-0.2-16-2.2-16.2-6.2-31.5-14.8-45.2-25.4-6.5-5-12.9-11-14.7-18.9-0.3-1.5-0.5-3.1 0.1-4.5 0.9-2 3-3.1 5-3.9 13.7-5.5 29.2-6 43.4-3 14.6 2.9 33.3 3.9 40.4 19.4z"/>
 <radialGradient id="br" cx="519.17" cy="417.53" r="40.186" gradientUnits="userSpaceOnUse">
  <stop stop-color="#7B2526" stop-opacity=".9153" offset="0"/>
  <stop stop-color="#9A0600" offset=".5108"/>
  <stop stop-color="#A52934" stop-opacity=".9" offset="1"/>
 </radialGradient>
 <path class="st1" d="m562.6 408.6l0.3 0.6c0.2 0.4 0.4 1 0.7 1.9 0.6 1.7 1.2 4.2 1.3 7.5s-0.3 7.3-1.5 11.7c-0.6 2.2-1.4 4.5-2.6 6.8-0.6 1.2-1.2 2.3-2 3.4s-1.6 2.2-2.7 3.2c-2 2-4.7 3.6-7.8 4.2s-6.4 0.2-9.5-0.6c-3.2-0.8-6.3-2-9.4-3.3-3.2-1.2-6.4-2.6-9.6-4.1-6.4-2.9-12.9-6.4-19.2-10.3-3.2-2-6.3-4.1-9.3-6.3s-6.1-4.5-8.9-7.1-5.5-5.5-7.4-8.9c-1-1.7-1.8-3.5-2.3-5.5-0.5-1.8-1-4.1-0.1-6.4l0.1-0.2v-0.1l0.1-0.2c0-0.1 0.1-0.2 0.2-0.4 0.2-0.3 0.3-0.5 0.5-0.7 0.4-0.5 0.8-0.8 1.2-1.2 0.9-0.7 1.8-1.1 2.7-1.5 0.5-0.2 0.9-0.4 1.4-0.5l1.3-0.5c0.8-0.3 1.7-0.6 2.6-0.9 3.5-1.1 7.1-1.8 10.6-2.3 7.1-1 14-0.9 20.4-0.1 3.2 0.4 6.3 1 9.3 1.6 3 0.7 5.8 1.2 8.6 1.8 5.5 1.1 10.6 2.3 14.8 4 4.3 1.7 7.7 3.7 10.2 5.9 0.3 0.3 0.6 0.5 0.9 0.8s0.5 0.6 0.8 0.8c0.5 0.5 1 1 1.4 1.5 0.7 1.1 1.4 1.9 1.8 2.7 0.7 1.9 1.1 2.7 1.1 2.7zs-0.4-0.8-1.3-2.4c-0.4-0.8-1.1-1.6-1.8-2.7-0.4-0.5-0.9-1-1.4-1.5-0.3-0.3-0.5-0.6-0.8-0.8-0.3-0.3-0.6-0.5-0.9-0.8-2.4-2.2-5.9-4.2-10.2-5.8s-9.3-2.7-14.9-3.5c-2.8-0.5-5.7-0.9-8.6-1.4-3-0.5-6-1-9.2-1.3-6.4-0.6-13.1-0.4-20 0.8-3.4 0.6-6.8 1.5-10.2 2.6-0.8 0.3-1.7 0.6-2.5 0.9l-1.3 0.5c-0.4 0.1-0.8 0.3-1.2 0.5-1.5 0.7-2.9 1.7-3.3 2.9-0.5 1.2-0.2 2.9 0.3 4.5 0.5 1.7 1.2 3.3 2.1 4.8 1.8 3 4.2 5.7 6.9 8.2s5.6 4.7 8.6 6.9 6 4.3 9.1 6.3c6.1 4 12.4 7.6 18.6 10.8 3.1 1.6 6.2 3 9.3 4.4 3.1 1.3 6.1 2.7 9.1 3.5 3 0.9 6.1 1.4 9 0.9s5.5-1.8 7.5-3.7c1-0.9 1.9-1.9 2.7-3s1.5-2.2 2.1-3.3c1.2-2.2 2-4.5 2.7-6.7 1.3-4.4 1.8-8.4 1.7-11.6-0.1-3.3-0.7-5.8-1.2-7.5-0.3-0.8-0.5-1.5-0.7-1.9-0.1-0.4-0.2-0.6-0.2-0.6z"/>
 <radialGradient id="bu" cx="458.45" cy="177.39" r="69.341" gradientTransform="matrix(.9996 .02893 -.02893 .9996 8.1876 -11.618)" gradientUnits="userSpaceOnUse">
  <stop stop-color="#FEF7E4" offset="0"/>
  <stop stop-color="#FBEACC" offset="0"/>
  <stop stop-color="#E7A341" offset="0"/>
  <stop stop-color="#DD8700" offset="0"/>
  <stop stop-color="#EA5602" offset="1"/>
 </radialGradient>
 <path class="st2" d="m422.5 130.6c19.8-8.4 41.9-10.4 63.3-8.6 15.8 1.3 32.7 5.3 43.1 17.2 5.1 5.9 8.2 13.3 10 20.9 6.4 27.2-5.3 57.6-28.1 73.6-2.6 1.8-5.5 3.5-8.6 4-9.5 1.5-16.8-7.5-23.5-14.4-11.8-12.2-27.3-20.2-43.2-26.4-11.2-4.4-22.7-8.1-34.4-11-8.4-2.1-17.3-4.1-18.6-14.2-2.2-18.9 25.7-35 40-41.1z"/>
 <radialGradient id="bv" cx="461.4" cy="179.7" r="71.459" gradientUnits="userSpaceOnUse">
  <stop stop-color="#7B2526" stop-opacity=".9153" offset="0"/>
  <stop stop-color="#9A0600" offset=".5108"/>
  <stop stop-color="#A52934" stop-opacity=".9" offset="1"/>
 </radialGradient>
 <path class="st3" d="m421.7 128.8s0.4-0.2 1.1-0.5c0.8-0.3 1.8-0.8 3.4-1.3 3.1-1.1 7.5-2.6 13.3-4 2.9-0.7 6.2-1.3 9.7-1.9 3.6-0.5 7.4-1 11.6-1.3 8.3-0.5 17.7-0.5 27.8 0.5 5.1 0.5 10.4 1.4 15.8 2.8 2.7 0.7 5.4 1.6 8.1 2.7s5.3 2.4 7.9 4c5.1 3.2 9.8 7.4 13.2 12.8 1.7 2.7 3.1 5.5 4.3 8.5 1.1 3 2.1 6 2.8 9.3 0.3 1.6 0.6 3.1 0.9 4.7 0.2 1.6 0.4 3.3 0.5 4.9s0.1 3.3 0.2 4.9c0 1.6-0.1 3.3-0.2 5-0.5 6.6-1.8 13.2-4.1 19.6-4.5 12.7-12.4 24.5-23.2 33.1l-2 1.6-1 0.8-1.1 0.7c-1.4 1-3 1.9-4.7 2.6-0.8 0.3-1.7 0.6-2.6 0.8-0.2 0.1-0.5 0.1-0.7 0.1h-0.8l-1.3 0.1c-2 0-3.8-0.3-5.6-0.9-3.5-1.2-6.4-3.3-8.9-5.6-2.6-2.3-4.9-4.7-7.2-7.1-8.9-9.6-19.9-16.5-31.2-21.8s-22.8-9.4-33.7-12.8c-5.5-1.7-10.9-3.1-16.2-4.4-2.7-0.7-5.3-1.5-7.9-2.7-2.5-1.2-5-3-6.6-5.4s-2.3-5.2-2.5-7.8l-0.1-0.9v-2l0.1-1c0.1-0.6 0.2-1.3 0.3-1.9s0.3-1.2 0.5-1.8c1.5-4.8 4.1-8.6 6.9-11.8s5.7-5.8 8.6-8.1c2.9-2.2 5.6-4.2 8.1-5.8 5-3.2 9.2-5.4 12.1-6.8 2.8-1.2 4.4-1.9 4.4-1.9zm1.5 3.6s-1.5 0.6-4.3 1.9c-2.8 1.4-6.9 3.3-11.8 6.4s-10.7 7.1-16 13.1c-2.6 3-4.9 6.5-6.2 10.5-0.2 0.5-0.3 1-0.4 1.5s-0.2 1-0.3 1.6l-0.1 0.8v1.6l0.1 0.9c0.2 2.2 0.7 4.3 1.9 6.1s3 3.2 5.2 4.2 4.7 1.8 7.3 2.5c5.2 1.3 10.8 2.8 16.3 4.5 11.1 3.4 22.6 7.6 34.2 13.1 5.7 2.8 11.4 5.9 16.9 9.6 2.7 1.8 5.4 3.9 7.9 6 1.3 1.1 2.5 2.2 3.8 3.4l1.8 1.7 1.8 1.8c2.3 2.4 4.5 4.8 6.9 7 2.4 2.1 5 4 7.9 5 1.4 0.5 3 0.7 4.3 0.7l1.3-0.1h0.5c-0.1 0 0 0 0 0 0.2 0 0.4-0.1 0.5-0.1 0.7-0.2 1.4-0.4 2.2-0.7 1.4-0.6 2.8-1.4 4.2-2.3l1-0.7 1-0.7 2-1.5c10.4-8.1 18-19.5 22.2-31.7 4.2-12.3 5.2-25.4 2.4-37.5-1.3-5.9-3.5-11.7-6.7-16.6-3.1-4.9-7.4-8.8-12.2-11.7-2.4-1.5-4.9-2.6-7.4-3.7-2.5-1-5.1-1.8-7.7-2.5-5.1-1.3-10.3-2.1-15.2-2.6-10-1-19.1-1-27.2-0.4-4 0.3-7.8 0.8-11.2 1.3-3.4 0.6-6.6 1.2-9.4 1.9-5.6 1.4-10 2.8-12.8 3.9-1.4 0.5-2.6 1-3.3 1.3-1 0.4-1.4 0.6-1.4 0.5z"/>
 <radialGradient id="bw" cx="437.68" cy="310.16" r="222.6" gradientTransform="matrix(.9996 .02893 -.02893 .9996 8.1876 -11.618)" gradientUnits="userSpaceOnUse">
  <stop stop-color="#FEF7E4" offset="0"/>
  <stop stop-color="#FBEACC" offset="0"/>
  <stop stop-color="#E7A341" offset="0"/>
  <stop stop-color="#DD8700" offset="0"/>
  <stop stop-color="#EA5602" offset="1"/>
 </radialGradient>
 <radialGradient id="bx" cx="437.68" cy="310.16" r="224.97" gradientTransform="matrix(.9996 .02893 -.02893 .9996 8.1876 -11.618)" gradientUnits="userSpaceOnUse">
  <stop stop-color="#7B2526" stop-opacity=".9153" offset="0"/>
  <stop stop-color="#9A0600" offset=".5108"/>
  <stop stop-color="#A52934" stop-opacity=".9" offset="1"/>
 </radialGradient>
 <path class="st4" d="m160.1 317.7c-0.8-1.8-1.6-3.6-2.2-5.4-2.6-7.3-3.9-15.5-0.9-22.7 2.7-6.5 9.1-11.4 16.1-12.4 10.7-1.5 20.8 5.6 28.1 13.7 17.6-42.9 49.1-78.3 90.8-99.4 40-20.2 86.6-26.4 131-19.8 22.2 3.3 44.3 9.8 63.2 21.9 31.3 20 51.4 53 70.3 84.9 18.1-24.2 39-46.3 62.2-65.8 19.3-16.2 42-31.1 67.2-31.1 8.6 0 17.6 1.9 24.2 7.5 12.2 10.2 12.6 28.7 9.5 44.3-8.9 43.8-38.4 81.8-75.8 106.2-3.4 2.2-7.2 5.2-6.7 9.2 0.2 1.6 1.1 3 2 4.3 7.3 10.5 16.9 19.6 22.6 31.1s6.4 27-2.9 35.8c-6.2 5.9-15.4 7.4-23.9 7-35.1-1.7-63.2-31.9-75.3-64.9-39.6 50.8-102.1 82.4-166.4 87.1-35.4 2.6-71.3-2.7-104.8-14.5-16.8-5.9-33-13.5-48.3-22.6-7.5-4.4-15.7-8.9-22.3-14.7-6.5-5.7-9.6-7.2-18.6-8.1-10.2-1.1-20-7.5-23.7-17.1s0.2-21.9 9.3-26.4c-10.7-6.8-19.3-16.7-24.7-28.1z"/>
 <radialGradient id="cx" cx="288.42" cy="277.88" r="36.271" gradientTransform="matrix(.9996 .02893 -.02893 .9996 8.1876 -11.618)" gradientUnits="userSpaceOnUse">
  <stop stop-color="#432C00" stop-opacity=".6" offset=".284"/>
  <stop stop-color="#472F00" stop-opacity=".5409" offset=".3898"/>
  <stop stop-color="#513700" stop-opacity=".4723" offset=".5125"/>
  <stop stop-color="#604207" stop-opacity=".399" offset=".6438"/>
  <stop stop-color="#72511B" stop-opacity=".3224" offset=".7809"/>
  <stop stop-color="#846230" stop-opacity=".244" offset=".9213"/>
  <stop stop-color="#8D6B3E" stop-opacity=".2" offset="1"/>
 </radialGradient>
 <path class="st5" d="m252.9 269.1c4.2-8 9.2-15.7 16.2-21.4 6.9-5.7 16.1-9.3 25-7.9 6.6 1 12.6 4.6 17.4 9.3 8.1 7.8 13.2 18.6 14 29.8s-2.6 22.7-9.5 31.6c3.9-9.5 5.7-20.1 3.6-30.1s-8.6-19.4-17.8-23.8c-6.1-2.9-13-3.5-19.7-2.8-13.7 1.5-27.5 10.1-31.2 23.3"/>
 <radialGradient id="by" cx="344.56" cy="311.89" r="61.627" gradientUnits="userSpaceOnUse">
  <stop stop-color="#7B2526" stop-opacity=".9153" offset="0"/>
  <stop stop-color="#9A0600" offset=".5108"/>
  <stop stop-color="#A52934" stop-opacity=".9" offset="1"/>
 </radialGradient>
 <path class="st6" d="m322.9 229.9l1.8 1.2c1.2 0.8 2.9 2 4.9 3.7s4.5 3.8 7.1 6.4c1.3 1.3 2.6 2.7 4 4.3s2.7 3.3 4.1 5.1c2.7 3.6 5.5 7.7 8.1 12.2s5.1 9.4 7.4 14.7c0.6 1.3 1.1 2.6 1.6 4 0.5 1.5 1 2.7 1.5 4.1 0.9 2.9 1.8 5.8 2.3 8.8 1.2 5.9 1.9 12.1 2 18.2 0 6.1-0.5 12.2-1.3 18.2-0.4 3-1 5.9-1.6 8.8-0.3 1.4-0.7 2.9-1 4.3-0.4 1.4-0.7 2.7-1.1 4.1-1.6 5.6-3.6 10.7-5.9 15.4s-4.9 9-7.6 12.7c-0.7 0.9-1.3 1.8-2.1 2.6-0.7 0.8-1.4 1.7-2.1 2.4l-2.2 2.2c-0.7 0.7-1.5 1.3-2.2 1.9-1.4 1.3-2.8 2.2-4.1 3.2-1.3 0.9-2.6 1.6-3.8 2.3-2.4 1.2-4.3 2-5.6 2.4-1.3 0.5-2 0.7-2 0.7s0.7-0.3 1.9-1c0.3-0.2 0.7-0.3 1-0.5 0.4-0.2 0.8-0.4 1.2-0.7 0.9-0.5 1.9-1.1 2.9-1.8 1-0.8 2.2-1.6 3.4-2.6 1.2-1.1 2.5-2.1 3.7-3.4 2.5-2.5 5.1-5.7 7.5-9.4s4.6-7.9 6.6-12.5 3.6-9.8 5-15c0.3-1.4 0.7-2.7 1-4.1s0.6-2.7 0.8-4.1c0.5-2.8 1-5.6 1.4-8.5 0.8-5.7 1.2-11.6 1.1-17.4 0-5.8-0.6-11.7-1.7-17.3-0.5-2.8-1.3-5.6-2-8.2-0.4-1.3-0.9-2.8-1.3-4l-1.5-3.9c-2-5.1-4.2-10-6.6-14.5-2.3-4.5-4.8-8.6-7.2-12.4-2.5-3.7-4.9-7-7.2-9.8s-4.5-5.1-6.3-6.9-3.3-3.3-4.4-4.2c-0.9-1.2-1.5-1.7-1.5-1.7z"/>
 <path class="st7" d="m260.5 259.6c7.4-8.5 19-13.1 30.2-11.9s21.6 8.1 27.1 17.9c7 12.6 5.6 28.4 0.2 41.7-2.6 6.4-9.5 21.9-18.1 21.2-2.3-0.2-4.4-1.2-6.5-2.1-9.9-4.2-20.7-6.5-31.5-6.9-5.8-0.2-7.1 0.6-9.7-4.9-1.6-3.4-2.7-7.1-3.4-10.9-2.8-15.1 1.5-32.3 11.7-44.1z"/>
 <linearGradient id="bz" x1="246.11" x2="324.43" y1="286.27" y2="288.53" gradientUnits="userSpaceOnUse">
  <stop stop-color="#D7E3F5" offset="0"/>
  <stop stop-color="#BBD1EE" offset=".5"/>
  <stop stop-color="#B6CFED" offset=".5745"/>
  <stop stop-color="#9FC1E7" offset="1"/>
 </linearGradient>
 <path class="st8" d="m260.5 259.6s0.7-0.7 1.9-2.1c0.3-0.3 0.6-0.7 1-1.2 0.4-0.4 0.8-0.9 1.2-1.4 0.5-0.5 1-1.1 1.5-1.7l1.8-1.8c2.7-2.4 6.9-4 11.8-5.1 2.5-0.5 5.1-0.8 7.9-0.7 0.7 0 1.4 0 2.1 0.1 0.4 0 0.7 0.1 1.1 0.1 0.4 0.1 0.7 0.1 1.1 0.2 0.3 0.1 0.7 0.1 1 0.2 0.4 0.1 0.7 0.2 1.1 0.2 0.4 0.1 0.8 0.2 1.1 0.2 0.4 0.1 0.7 0.2 1.1 0.3 5.9 1.7 11.9 5.1 16.7 10.1 2.4 2.5 4.5 5.4 6.1 8.8 0.8 1.5 1.5 3.3 2 5.1 0.6 1.8 1 3.6 1.3 5.4 0.6 3.7 0.8 7.5 0.5 11.3s-1 7.6-2 11.3-2.4 7.4-4 10.9c-1.6 3.6-3.3 7.1-5.5 10.3-1.1 1.6-2.2 3.2-3.4 4.8s-2.6 3.1-4.6 4.1c-1 0.5-2.1 0.7-3.3 0.7-1.1 0-2.2-0.3-3.2-0.5-2-0.6-3.7-1.5-5.5-2.2-7-2.8-14.3-4.8-21.4-5.8-3.6-0.5-7.1-0.8-10.6-0.9-0.9 0-1.8 0-2.7-0.2-0.9-0.1-2-0.6-2.7-1.2-1.5-1.4-2.1-3-2.8-4.6-2.7-6.3-3.6-12.7-3.6-18.6 0-2.9 0.2-5.8 0.6-8.4 0.2-1.3 0.5-2.6 0.7-3.9l0.9-3.6c1.3-4.6 3-8.4 4.6-11.4 0.8-1.5 1.6-2.8 2.3-3.9s1.4-2 2-2.7c1.2-1.4 1.9-2.2 1.9-2.2zs-0.6 0.8-1.8 2.2c-0.5 0.7-1.2 1.7-1.9 2.8s-1.5 2.4-2.3 3.9c-1.6 3-3.2 6.8-4.4 11.4s-1.9 9.9-1.7 15.8c0.2 5.8 1.3 12.1 4.2 18.1 0.7 1.5 1.5 3 2.6 4 1.1 0.9 2.7 0.9 4.5 0.9 3.5 0 7.2 0.1 10.9 0.5 7.4 0.8 14.9 2.7 22.1 5.6 1.8 0.7 3.6 1.6 5.3 2.1 0.9 0.3 1.7 0.4 2.5 0.5s1.6 0 2.4-0.3c1.7-0.4 3.4-1.4 4.9-2.6s2.8-2.7 3.9-4.3c2.1-3.3 3.9-6.8 5.4-10.4 1.6-3.6 2.8-7.2 3.7-11 0.9-3.7 1.4-7.5 1.5-11.2s-0.2-7.4-1-10.9c-0.4-1.8-0.9-3.5-1.5-5.1s-1.3-3.1-2.2-4.7c-1.6-3-3.8-5.6-6.1-7.8-4.7-4.5-10.3-7.3-15.7-8.6s-10.6-1.1-15-0.2c-2.2 0.5-4.2 1.2-6 1.9-0.4 0.2-0.9 0.4-1.3 0.6s-0.8 0.4-1.3 0.5c-0.9 0.3-1.6 0.7-2.4 0.9-0.8 0.3-1.5 0.6-2.2 0.9s-1.3 0.6-1.9 0.9-1.1 0.6-1.6 0.9-0.9 0.6-1.2 0.9c-0.7 0.6-1.2 1.1-1.5 1.4-0.8 0.2-0.9 0.4-0.9 0.4z"/>
 <ellipse class="Grafikstil_x0020_12" transform="matrix(.02893 -.9996 .9996 .02893 -28.833 557.57)" cx="272.6" cy="293.6" rx="25.5" ry="23.5"/>
 <radialGradient id="ca" cx="208.3" cy="346.25" r="26.955" gradientUnits="userSpaceOnUse">
  <stop stop-color="#7B2526" stop-opacity=".9153" offset="0"/>
  <stop stop-color="#9A0600" offset=".5108"/>
  <stop stop-color="#A52934" stop-opacity=".9" offset="1"/>
 </radialGradient>
 <path class="st9" d="m175.6 332.1l1.4 1.6 1.4 1.5 1.5 1.5 1.5 1.4 1.6 1.3 1.6 1.3 1.7 1.2 1.7 1.1 1.8 1 1.8 1 1.8 0.9 1.9 0.8 1.9 0.7 1.9 0.6 1.9 0.5 2 0.5 2 0.4 1.9 0.3 2 0.2 2 0.1h2l2-0.1 2-0.1c0.7-0.1 1.3-0.2 2-0.2l2-0.3 2-0.3 1.9-0.4c0.6-0.2 1.3-0.3 1.9-0.5l1.9-0.5c0.6-0.2 1.3-0.4 1.9-0.6s1.3-0.4 1.9-0.7c0.6-0.2 1.3-0.5 1.9-0.7l-0.9 2.5c0-1.7 0.5-3.2 1.3-4.4 0 0.8 0 1.5 0.1 2.3s0.2 1.5 0.3 2.2c0.2 0.7 0.3 1.5 0.5 2.2s0.5 1.4 0.8 2.1 0.6 1.4 1 2.1 0.7 1.3 1.2 2c0.4 0.6 0.9 1.2 1.3 1.8 0.5 0.6 1 1.1 1.5 1.7-0.5-0.5-1-1.1-1.5-1.7s-0.9-1.2-1.3-1.8-0.8-1.3-1.2-2c-0.3-0.7-0.7-1.4-1-2.1s-0.5-1.4-0.8-2.1c-0.2-0.7-0.4-1.5-0.5-2.2s-0.2-1.5-0.3-2.2c-0.1-0.8-0.1-1.5-0.1-2.3 0.5 1.3 1.4 2.3 2.3 2.9l1.5 1-2.4 1.5c-0.6 0.4-1.2 0.8-1.9 1.1s-1.3 0.7-2 1-1.3 0.6-2 0.9l-2.1 0.8-2.1 0.6-2.2 0.5-2.2 0.4-2.2 0.3c-0.7 0.1-1.5 0.1-2.2 0.2l-2.2 0.1h-2.2l-2.2-0.2-2.2-0.3-2.2-0.4-2.2-0.5-2.1-0.6-2.1-0.7-2.1-0.8-2-0.9-2-1-1.9-1.1-1.8-1.2-1.8-1.2-1.7-1.3-1.7-1.4-1.6-1.5-1.5-1.5-1.4-1.6-1.3-1.7-1.2-1.7-1.2-1.8-1-1.5z"/>
 <path class="st10" d="m373.3 326.3c12.6-11.9 27.8-21 44.3-26.4 6.5-2.1 13.3-3.7 20.1-3.2s13.7 3.4 17.8 8.8c4.6 6 5.2 14.2 4.6 21.7-1.7 21.1-12.2 41.4-28.4 55.1-3.4 2.9-7.1 5.5-11.4 7-8.2 2.9-17.6 0.9-25.1-3.4-11-6.2-18.9-17.5-21.3-29.9"/>
 <radialGradient id="cb" cx="417.11" cy="343.62" r="47.636" gradientUnits="userSpaceOnUse">
  <stop stop-color="#7B2526" stop-opacity=".9153" offset="0"/>
  <stop stop-color="#9A0600" offset=".5108"/>
  <stop stop-color="#A52934" stop-opacity=".9" offset="1"/>
 </radialGradient>
 <path class="st11" d="m373.3 326.3l2-2c1.3-1.3 3.3-3.3 6-5.5 2.7-2.3 6.1-4.9 10.2-7.7 4.1-2.7 8.9-5.6 14.4-8.2 2.7-1.3 5.7-2.6 8.7-3.7 3.1-1.2 6.3-2.2 9.8-3.1 3.4-0.8 7.1-1.5 10.9-1.5 3.9 0 7.8 0.6 11.6 2.1s7.4 3.9 10.1 7.3l0.1 0.2c0 0.1 0 0 0.1 0.1l0.1 0.1 0.2 0.3 0.4 0.6c0.3 0.4 0.6 0.9 0.9 1.4s0.5 1 0.8 1.4c0.2 0.5 0.4 1 0.7 1.5 0.8 2 1.4 4.1 1.7 6.2 0.7 4.2 0.7 8.4 0.3 12.5l-0.3 3c-0.1 1-0.3 2.1-0.5 3.1-0.1 1-0.4 2.1-0.6 3.1s-0.4 2-0.7 3c-2 8-5.2 15.7-9.4 22.7-4.1 7-9.4 13.2-15 18.4-2.9 2.5-5.8 5-9.1 7-1.6 1-3.4 1.8-5.2 2.5l-0.7 0.2-0.2 0.1h-0.2l-0.3 0.1c-0.4 0.1-0.8 0.3-1.3 0.4l-1.4 0.3c-0.5 0.1-0.9 0.1-1.4 0.2-3.7 0.5-7.3 0.2-10.6-0.5-3.3-0.8-6.4-2-9.1-3.4-0.7-0.3-1.4-0.8-2-1.1-0.6-0.4-1.3-0.8-1.9-1.2-1.2-0.8-2.4-1.7-3.5-2.6-2.2-1.8-4-3.7-5.6-5.6-3.2-3.9-5.3-7.7-6.7-10.9-1.4-3.3-2.1-6-2.5-7.8-0.2-0.9-0.3-1.6-0.4-2.1s-0.1-0.7-0.1-0.7 0.1 0.2 0.2 0.7 0.3 1.2 0.6 2.1c0.5 1.8 1.5 4.4 3.1 7.5s4 6.6 7.2 10.1c1.7 1.7 3.5 3.4 5.7 5 1.1 0.8 2.2 1.5 3.4 2.3 0.6 0.4 1.2 0.7 1.9 1.1 0.6 0.3 1.3 0.7 1.9 1 2.6 1.2 5.5 2.2 8.5 2.7s6.2 0.7 9.4 0.1c6.3-0.9 12-5.3 17.3-10.3 2.6-2.6 5.2-5.3 7.5-8.2 0.6-0.7 1.1-1.5 1.7-2.3s1.1-1.5 1.6-2.3 1.1-1.6 1.6-2.4 1-1.6 1.5-2.5c3.9-6.6 6.8-13.9 8.7-21.4 0.3-0.9 0.4-1.9 0.6-2.8s0.4-1.9 0.5-2.8 0.3-1.9 0.5-2.8l0.3-3c0.4-3.7 0.4-7.6-0.2-11.2s-1.8-7-3.9-9.7-5-4.8-8.1-6.1c-6.4-2.7-13.6-2.4-20.1-1.1-3.3 0.7-6.4 1.6-9.5 2.6-3 1-5.9 2-8.7 3.2-5.5 2.3-10.4 4.8-14.6 7.2s-7.7 4.8-10.6 6.8c-1.4 1-2.7 2-3.7 2.8-1.1 0.8-2 1.5-2.7 2.1-1.1 0.7-1.9 1.4-1.9 1.4z"/>
 <radialGradient id="cc" cx="295" cy="228.73" r="13.79" gradientUnits="userSpaceOnUse">
  <stop stop-color="#7B2526" stop-opacity=".9153" offset="0"/>
  <stop stop-color="#9A0600" offset=".5108"/>
  <stop stop-color="#A52934" stop-opacity=".9" offset="1"/>
 </radialGradient>
 <path class="st12" d="m277.9 229.9l0.3-0.3c0.2-0.2 0.4-0.6 0.8-0.9 0.4-0.4 0.8-0.8 1.4-1.3s1.3-1 2.1-1.5c1.6-1 3.6-1.9 5.9-2.6 0.6-0.2 1.1-0.3 1.8-0.4 0.6-0.1 1.1-0.2 1.8-0.3s1.3-0.1 2-0.1c0.6 0 1.3 0 1.9 0.1 1.3 0.1 2.6 0.3 3.8 0.6s2.4 0.8 3.5 1.3 2.1 1.1 3 1.8c0.4 0.4 0.9 0.7 1.2 1l1.1 1.1c0.3 0.4 0.6 0.7 0.9 1.1s0.5 0.7 0.7 1c0.4 0.6 0.6 1.3 0.9 1.8 0.2 0.5 0.3 0.9 0.4 1.2s0.1 0.4 0.1 0.4-0.5-0.4-1.3-1c-0.4-0.3-0.9-0.7-1.5-1l-0.9-0.6c-0.3-0.2-0.7-0.4-1-0.6-0.7-0.4-1.5-0.7-2.4-1.1-0.8-0.3-1.8-0.6-2.7-0.9-0.5-0.1-1-0.2-1.5-0.4l-1.5-0.3c-1-0.2-2.1-0.3-3.1-0.4-0.5-0.1-1-0.1-1.6-0.1h-1.5c-0.5 0-1.1 0.1-1.6 0.1-0.4 0-1 0.1-1.5 0.1-2 0.2-3.9 0.5-5.6 0.9s-3.1 0.7-4.1 1c-0.5 0.1-0.9 0.2-1.2 0.3-0.4-0.1-0.6 0-0.6 0z"/>
 <radialGradient id="cd" cx="237.15" cy="345.18" r="7.2612" gradientUnits="userSpaceOnUse">
  <stop stop-color="#7B2526" stop-opacity=".9153" offset="0"/>
  <stop stop-color="#9A0600" offset=".5108"/>
  <stop stop-color="#A52934" stop-opacity=".9" offset="1"/>
 </radialGradient>
 <path class="st13" d="m233.6 336.9s0.2 0.3 0.5 0.8 0.7 1.2 1.1 2c0.8 1.6 1.6 3.5 2.6 5.1 0.1 0.1 0.3 0.5 0.4 0.6l0.3 0.6c0.3 0.4 0.5 0.8 0.7 1.1 0.5 0.7 1 1.4 1.6 2 0.3 0.3 0.5 0.6 0.8 0.8s0.5 0.5 0.7 0.6c0.5 0.4 0.7 0.6 0.7 0.6s-0.1 0-0.2 0.1-0.4 0.2-0.7 0.3-0.7 0.2-1.1 0.2h-1.5c-1.1-0.1-2.3-0.6-3.4-1.4-0.6-0.4-1.1-0.8-1.5-1.4-0.2-0.3-0.5-0.5-0.7-0.9-0.3-0.4-0.3-0.5-0.6-0.9-0.3-0.6-0.6-1.3-0.8-1.9s-0.3-1.3-0.4-1.9c-0.1-1.3 0-2.4 0.2-3.4s0.5-1.7 0.8-2.3c0.1-0.3 0.3-0.5 0.3-0.6l0.2-0.1z"/>
 <path class="st14" d="m285.7 298.9c-1.9-0.3-4.2-1-4.5-2.9-0.1-0.8 0.2-1.7 0.5-2.5 4.1-9.2 13.4-15.8 23.5-16.8 1.1-0.1 2.2-0.1 3.2 0.3 2 0.9 2.7 3.4 3 5.6 0.7 5 0.6 10.2-0.2 15.2-1.3 7.2-20.4 1.9-25.5 1.1z"/>
 <radialGradient id="ce" cx="167.3" cy="300.55" r="34.637" gradientTransform="matrix(.9996 .02893 -.02893 .9996 8.1876 -11.618)" gradientUnits="userSpaceOnUse">
  <stop stop-color="#fff" stop-opacity=".7" offset=".2888"/>
  <stop stop-color="#FFFEFB" stop-opacity=".6033" offset=".4035"/>
  <stop stop-color="#FFFBF1" stop-opacity=".4911" offset=".5364"/>
  <stop stop-color="#FFF6DE" stop-opacity=".3712" offset=".6786"/>
  <stop stop-color="#FFEFC4" stop-opacity=".2458" offset=".8271"/>
  <stop stop-color="#FFE6A0" stop-opacity=".1175" offset=".9793"/>
  <stop stop-color="#FFE59A" stop-opacity=".1" offset="1"/>
 </radialGradient>
 <path class="st15" d="m168.8 319.6c-1.8-4.3-4.3-8.3-6.1-12.7-1.7-4.3-2.7-9.2-1.3-13.7 2.2-7 10.1-11.4 17.4-10.4 8.5 1.2 15 8.2 19.4 15.6-3.1-0.6-5.2-3.7-8.2-4.8-3.2-1.2-6.8 0.1-9.9 1.7-2.2 1.1-4.3 2.3-6 4.1-3.6 3.9-4.1 9.9-2.8 15 1.3 5.2 4.2 9.7 6.8 14.4 0.2 0.4 0.4 0.9 0.1 1.2s-0.8-0.5-0.4-0.5"/>
 <radialGradient id="cf" cx="185.98" cy="370.12" r="25.525" gradientTransform="matrix(.9996 .02893 -.02893 .9996 8.1876 -11.618)" gradientUnits="userSpaceOnUse">
  <stop stop-color="#fff" stop-opacity=".7" offset=".2888"/>
  <stop stop-color="#FFFEFB" stop-opacity=".6033" offset=".4035"/>
  <stop stop-color="#FFFBF1" stop-opacity=".4911" offset=".5364"/>
  <stop stop-color="#FFF6DE" stop-opacity=".3712" offset=".6786"/>
  <stop stop-color="#FFEFC4" stop-opacity=".2458" offset=".8271"/>
  <stop stop-color="#FFE6A0" stop-opacity=".1175" offset=".9793"/>
  <stop stop-color="#FFE59A" stop-opacity=".1" offset="1"/>
 </radialGradient>
 <path class="st16" d="m186.7 381.4c6.2 4.7 15.2 5.4 22.1 1.9 0.9-0.4 1.7-1 2.2-1.8-4.2-1.3-8.4-2.5-12.6-3.8-1.6-0.5-3.3-1-4.7-2-1.6-1.2-2.6-3-3.5-4.8-1.6-3.4-2.9-18.3-9.7-12.4-6.5 5.7 1.3 19.2 6.2 22.9z"/>
 <radialGradient id="cg" cx="228.47" cy="228.55" r="63.977" gradientTransform="matrix(.9996 .02893 -.02893 .9996 8.1876 -11.618)" gradientUnits="userSpaceOnUse">
  <stop stop-color="#fff" stop-opacity=".7" offset=".2888"/>
  <stop stop-color="#FFFEFB" stop-opacity=".6033" offset=".4035"/>
  <stop stop-color="#FFFBF1" stop-opacity=".4911" offset=".5364"/>
  <stop stop-color="#FFF6DE" stop-opacity=".3712" offset=".6786"/>
  <stop stop-color="#FFEFC4" stop-opacity=".2458" offset=".8271"/>
  <stop stop-color="#FFE6A0" stop-opacity=".1175" offset=".9793"/>
  <stop stop-color="#FFE59A" stop-opacity=".1" offset="1"/>
 </radialGradient>
 <path class="st17" d="m289.7 204.8c-20.5 12.5-37.4 30.7-49.1 51.7-5 9-9.9 25.3-18.6 31.4-7.2 5-4.8-7.2-3.7-11.8 4.7-20.2 22.7-39.5 38.3-52.1 10.1-8 21.2-14.5 33.1-19.2z"/>
 <radialGradient id="ch" cx="387.73" cy="405.22" r="92.165" gradientTransform="matrix(.9996 .02893 -.02893 .9996 8.1876 -11.618)" gradientUnits="userSpaceOnUse">
  <stop stop-color="#fff" stop-opacity=".7" offset=".2888"/>
  <stop stop-color="#FFFEFB" stop-opacity=".6033" offset=".4035"/>
  <stop stop-color="#FFFBF1" stop-opacity=".4911" offset=".5364"/>
  <stop stop-color="#FFF6DE" stop-opacity=".3712" offset=".6786"/>
  <stop stop-color="#FFEFC4" stop-opacity=".2458" offset=".8271"/>
  <stop stop-color="#FFE6A0" stop-opacity=".1175" offset=".9793"/>
  <stop stop-color="#FFE59A" stop-opacity=".1" offset="1"/>
 </radialGradient>
 <path class="st18" d="m439.6 424.5c-26.1 5.9-52.8 8.6-79.4 11.4 20.7 5.7 43 4.2 63.8-1.1s40.5-14.4 59.9-23.9c8.1-4 15.6-8.8 23.3-13.4-0.8 6.2-25.8 14.2-31.7 16.4-11.8 4.4-23.8 7.8-35.9 10.6z"/>
 <radialGradient id="cj" cx="422.15" cy="379.56" r="42.079" gradientTransform="matrix(.9996 .02893 -.02893 .9996 8.1876 -11.618)" gradientUnits="userSpaceOnUse">
  <stop stop-color="#432C00" stop-opacity=".6" offset=".284"/>
  <stop stop-color="#472F00" stop-opacity=".5409" offset=".3898"/>
  <stop stop-color="#513700" stop-opacity=".4723" offset=".5125"/>
  <stop stop-color="#604207" stop-opacity=".399" offset=".6438"/>
  <stop stop-color="#72511B" stop-opacity=".3224" offset=".7809"/>
  <stop stop-color="#846230" stop-opacity=".244" offset=".9213"/>
  <stop stop-color="#8D6B3E" stop-opacity=".2" offset="1"/>
 </radialGradient>
 <path class="st19" d="m407.1 415.4c-12.8 0.7-27.3-3.6-32.9-15.1-5.3-10.7-1.6-24.8 1.8-35.6 2 2 2.7 4.9 4.4 7.2 4.1 5.5 11.9 12.3 18 15.5 3.7 2 7.7 3.4 11.9 3.3 6.1-0.1 11.7-3.5 16.5-7.2 12.6-9.7 24.5-23 30.2-38 0.6-1.5 7 5.1 7.4 5.8 1.5 2.5 2.7 6.5 2.8 9.4 0.3 7.4-4.5 16-8.2 22.2-5.1 8.7-12.2 16.1-20.5 21.7-9.3 6.2-20.2 10.2-31.4 10.8z"/>
 <radialGradient id="ck" cx="199.78" cy="359.2" r="13.573" gradientTransform="matrix(.9996 .02893 -.02893 .9996 8.1876 -11.618)" gradientUnits="userSpaceOnUse">
  <stop stop-color="#432C00" stop-opacity=".6" offset=".284"/>
  <stop stop-color="#472F00" stop-opacity=".5409" offset=".3898"/>
  <stop stop-color="#513700" stop-opacity=".4723" offset=".5125"/>
  <stop stop-color="#604207" stop-opacity=".399" offset=".6438"/>
  <stop stop-color="#72511B" stop-opacity=".3224" offset=".7809"/>
  <stop stop-color="#846230" stop-opacity=".244" offset=".9213"/>
  <stop stop-color="#8D6B3E" stop-opacity=".2" offset="1"/>
 </radialGradient>
 <path class="st20" d="m179.9 350.9c-0.5 2.7 1.8 5.2 4.2 6.6 4.7 2.8 10.5 3.6 15.9 2.7s10.5-3.2 15.1-6.3c-7.5-1.2-14.8-3.6-21.6-6.9-4.3-1.9-12.3-3.6-13.6 3.9z"/>
 <radialGradient id="cl" cx="361.96" cy="306.05" r="29.014" gradientTransform="matrix(.9996 .02893 -.02893 .9996 8.1876 -11.618)" gradientUnits="userSpaceOnUse">
  <stop stop-color="#432C00" stop-opacity=".6" offset=".284"/>
  <stop stop-color="#472F00" stop-opacity=".5409" offset=".3898"/>
  <stop stop-color="#513700" stop-opacity=".4723" offset=".5125"/>
  <stop stop-color="#604207" stop-opacity=".399" offset=".6438"/>
  <stop stop-color="#72511B" stop-opacity=".3224" offset=".7809"/>
  <stop stop-color="#846230" stop-opacity=".244" offset=".9213"/>
  <stop stop-color="#8D6B3E" stop-opacity=".2" offset="1"/>
 </radialGradient>
 <path class="st21" d="m358.4 279.7c8.6 20 6 42.9 3.3 64.5 7.2-12.9 11.9-27.7 10.8-42.4-1.1-14.8-8.7-29.5-21.6-36.7"/>
 <radialGradient id="cm" cx="511.57" cy="408.6" r="19.848" gradientTransform="matrix(.9996 .02893 -.02893 .9996 8.1876 -11.618)" gradientUnits="userSpaceOnUse">
  <stop stop-color="#432C00" stop-opacity=".6" offset=".284"/>
  <stop stop-color="#472F00" stop-opacity=".5409" offset=".3898"/>
  <stop stop-color="#513700" stop-opacity=".4723" offset=".5125"/>
  <stop stop-color="#604207" stop-opacity=".399" offset=".6438"/>
  <stop stop-color="#72511B" stop-opacity=".3224" offset=".7809"/>
  <stop stop-color="#846230" stop-opacity=".244" offset=".9213"/>
  <stop stop-color="#8D6B3E" stop-opacity=".2" offset="1"/>
 </radialGradient>
 <path class="st22" d="m524 399.4c-4.3 11.4-10.6 22-18.7 31.2-6.6-2.5-12.9-5.9-18.5-10.3 13.5-9.9 30.5-15 42.1-27.1"/>
 <radialGradient id="cn" cx="505.29" cy="206.75" r="19.278" gradientTransform="matrix(.9996 .02893 -.02893 .9996 8.1876 -11.618)" gradientUnits="userSpaceOnUse">
  <stop stop-color="#432C00" stop-opacity=".6" offset=".284"/>
  <stop stop-color="#472F00" stop-opacity=".5409" offset=".3898"/>
  <stop stop-color="#513700" stop-opacity=".4723" offset=".5125"/>
  <stop stop-color="#604207" stop-opacity=".399" offset=".6438"/>
  <stop stop-color="#72511B" stop-opacity=".3224" offset=".7809"/>
  <stop stop-color="#846230" stop-opacity=".244" offset=".9213"/>
  <stop stop-color="#8D6B3E" stop-opacity=".2" offset="1"/>
 </radialGradient>
 <path class="st23" d="m485 194c10.6 2.6 20.9 6.1 30.9 10.3 4.8 2 9.5 4.2 14.2 6.4-2.8 5.1-6.2 9.9-10.1 14.3-7.1-9-15-17.4-23.6-25"/>
 <radialGradient id="co" cx="566.74" cy="271.16" r="15.601" gradientTransform="matrix(.9996 .02893 -.02893 .9996 8.1876 -11.618)" gradientUnits="userSpaceOnUse">
  <stop stop-color="#432C00" stop-opacity=".6" offset=".284"/>
  <stop stop-color="#472F00" stop-opacity=".5409" offset=".3898"/>
  <stop stop-color="#513700" stop-opacity=".4723" offset=".5125"/>
  <stop stop-color="#604207" stop-opacity=".399" offset=".6438"/>
  <stop stop-color="#72511B" stop-opacity=".3224" offset=".7809"/>
  <stop stop-color="#846230" stop-opacity=".244" offset=".9213"/>
  <stop stop-color="#8D6B3E" stop-opacity=".2" offset="1"/>
 </radialGradient>
 <path class="st24" d="m560.5 295.3c-0.2-5.5-5-10.5-3.6-15.9 0.5-1.9 1.8-3.5 3-5 4.2-5.2 10.5-16.8 17.6-18-3.5 12.3-17.5 25.1-17 38.9z"/>
 <radialGradient id="cp" cx="567.12" cy="358.57" r="13.195" gradientTransform="matrix(.9996 .02893 -.02893 .9996 8.1876 -11.618)" gradientUnits="userSpaceOnUse">
  <stop stop-color="#432C00" stop-opacity=".6" offset=".284"/>
  <stop stop-color="#472F00" stop-opacity=".5409" offset=".3898"/>
  <stop stop-color="#513700" stop-opacity=".4723" offset=".5125"/>
  <stop stop-color="#604207" stop-opacity=".399" offset=".6438"/>
  <stop stop-color="#72511B" stop-opacity=".3224" offset=".7809"/>
  <stop stop-color="#846230" stop-opacity=".244" offset=".9213"/>
  <stop stop-color="#8D6B3E" stop-opacity=".2" offset="1"/>
 </radialGradient>
 <path class="st25" d="m565.6 345.3c-0.3 6.1-0.1 12.3 0.5 18.4 0.6 6 1.7 11.9 3.2 17.7-0.5-1.9-5.7-5.8-7-8.1-1.4-2.5-2.4-5.1-2.5-8-0.4-6.9 3.7-13.7 5.8-20z"/>
 <radialGradient id="cq" cx="239.95" cy="349.72" r="13.234" gradientTransform="matrix(.9996 .02893 -.02893 .9996 8.1876 -11.618)" gradientUnits="userSpaceOnUse">
  <stop stop-color="#432C00" stop-opacity=".6" offset=".284"/>
  <stop stop-color="#472F00" stop-opacity=".5409" offset=".3898"/>
  <stop stop-color="#513700" stop-opacity=".4723" offset=".5125"/>
  <stop stop-color="#604207" stop-opacity=".399" offset=".6438"/>
  <stop stop-color="#72511B" stop-opacity=".3224" offset=".7809"/>
  <stop stop-color="#846230" stop-opacity=".244" offset=".9213"/>
  <stop stop-color="#8D6B3E" stop-opacity=".2" offset="1"/>
 </radialGradient>
 <path class="st26" d="m232.5 329.4c1.8 11.7 7.3 22.8 15.6 31.2-4.9-4.9-15.3-4.4-19.5-11.4-3.1-5.3-0.3-15.7 3.9-19.8z"/>
 <g class="st27">
  <path class="st28" d="m377 331.6c1.1-1 2.1-2 3.2-2.9 1.1-1 2.2-1.9 3.4-2.8 1.1-0.9 2.3-1.8 3.5-2.7s2.4-1.7 3.6-2.6c1.2-0.8 2.4-1.6 3.7-2.4 1.2-0.8 2.5-1.6 3.8-2.3s2.6-1.5 3.9-2.2 2.6-1.4 3.9-2 2.7-1.3 4-1.9c0.7-0.3 1.4-0.6 2-0.9 0.7-0.3 1.3-0.6 2.1-0.8 1.4-0.5 2.8-1 4.2-1.5 1.4-0.4 2.9-0.8 4.4-1.1s3-0.6 4.5-0.7c1.5-0.2 3.1-0.2 4.6-0.1s3.1 0.3 4.6 0.7c1.5 0.3 3 0.9 4.5 1.5l3.7 1.6-3.8 1.7c-3.8 1.6-7.5 3.3-11.3 4.9l-11.3 4.9-0.4-3.7c4.1 0.8 8.1 1.6 12.2 2.4l6.1 1.2 1.5 0.3c0.5 0.1 1.1 0.2 1.7 0.4 1.1 0.4 2.4 0.9 3.6 2.2 0.3 0.3 0.5 0.7 0.7 1.2 0.1 0.2 0.1 0.4 0.2 0.7 0 0.1 0 0.2 0.1 0.3v0.9c0 0.3-0.1 0.6-0.1 0.8-0.1 0.5-0.3 0.9-0.5 1.2-0.9 1.4-2.1 2.1-3.2 2.6-1.2 0.5-2 0.8-3.1 1.2-1 0.4-2 0.7-3 1-4 1.3-8.1 2.3-12.3 3l0.2-3.4c2.5 0.8 5.1 1.6 7.5 3 1.2 0.7 2.4 1.6 3.4 2.6l0.4 0.4 0.2 0.2 0.1 0.1v0.1l0.1 0.1 0.6 0.8 0.6 1c0.2 0.3 0.3 0.7 0.5 1 1.1 2.7 1.3 5.7 0.7 8.5-0.3 1.4-0.8 2.7-1.5 4-0.4 0.6-0.7 1.2-1.2 1.8l-0.6 0.7-0.8 0.8c-2 1.9-4.6 3.2-7.2 3.9-1.3 0.4-2.7 0.6-4 0.6h-2l-1-0.1-1-0.1c-1.4-0.2-2.6-0.5-3.9-1-1.3-0.4-2.5-1-3.6-1.6-2.3-1.2-4.4-2.8-6.3-4.5 2.1 1.6 4.3 2.9 6.7 3.9 1.2 0.5 2.4 0.9 3.6 1.2s2.5 0.5 3.7 0.6l1 0.1h0.9c0.6 0 1.2-0.1 1.9-0.1 1.2-0.2 2.4-0.4 3.6-0.8 2.3-0.8 4.5-2.1 6.1-3.8l0.6-0.6 0.6-0.8c0.3-0.4 0.6-1 0.9-1.5 0.5-1 0.9-2.2 1.1-3.3 0.4-2.3 0.2-4.7-0.8-6.7l-0.4-0.7-0.4-0.6-0.6-0.8s0.1 0.1 0 0.1l-0.1-0.1-0.1-0.2-0.3-0.3c-0.8-0.8-1.8-1.4-2.8-2-2.1-1.1-4.5-1.8-7-2.5l-6.9-2 7.1-1.4c4-0.8 7.9-1.8 11.7-3.2 1-0.3 1.9-0.7 2.9-1 0.9-0.4 2-0.7 2.7-1.1 0.8-0.4 1.4-0.9 1.6-1.2 0.1-0.1 0.1-0.1 0.1-0.2v-0.3 0.1-0.1s0-0.1-0.1-0.2c-0.2-0.3-0.9-0.7-1.7-0.9-0.4-0.1-0.8-0.2-1.3-0.3l-1.5-0.3-6.1-1.2c-4.1-0.8-8.1-1.6-12.2-2.4l-6.3-1.3 5.9-2.5 11.4-4.8c3.8-1.6 7.6-3.1 11.4-4.7l-0.1 3.3c-1.2-0.6-2.4-1.1-3.8-1.4-1.3-0.4-2.6-0.5-4-0.7-1.4-0.1-2.7-0.1-4.1 0s-2.8 0.3-4.2 0.5-2.8 0.6-4.1 0.9c-1.4 0.4-2.7 0.8-4.1 1.3-0.7 0.2-1.3 0.5-2 0.7l-2 0.8c-1.3 0.5-2.7 1.1-4 1.6-2.7 1.1-5.3 2.4-7.8 3.7-1.3 0.7-2.6 1.3-3.8 2-1.3 0.7-2.5 1.4-3.8 2.2-1.2 0.7-2.5 1.5-3.7 2.3l-3.6 2.4c-1.2 0.8-2.4 1.7-3.6 2.5-1.8 1.1-3 1.9-4.1 2.8z"/>
 </g>
 <g class="st27">
  <path class="st28" d="m574 277.8l4.8-7.2c1.7-2.4 3.4-4.7 5.1-7.1 1.8-2.3 3.5-4.6 5.3-6.9 1.9-2.2 3.6-4.5 5.6-6.7 3.8-4.4 7.7-8.7 11.9-12.8 2.1-2 4.1-4.1 6.3-6.1 2.1-2 4.3-3.9 6.6-5.8l3.4-2.8c1.1-0.9 2.3-1.8 3.5-2.7l3.5-2.7 3.6-2.5c1.2-0.8 2.4-1.7 3.6-2.5l3.7-2.4c2.5-1.6 5-3 7.6-4.5 5.1-2.9 10.4-5.4 15.8-7.8 1.3-0.6 2.7-1.1 4.1-1.6l4.1-1.5 1.1-0.4 1-0.3 2.2-0.7c1.4-0.4 2.9-0.8 4.4-1.2 3-0.6 6.3-1 9.6-0.7l1.2 0.1h0.7l0.5 0.1c0.4 0.1 0.9 0.2 1.3 0.3s0.8 0.2 1.2 0.4c1.6 0.5 3.2 1.3 4.6 2.2 2.9 1.8 5.5 4.6 6.8 8.1 0.2 0.4 0.3 0.9 0.4 1.3v0.5l0.1 0.3 0.1 0.5c0.1 0.4 0.1 1 0.2 1.5v1.4c-0.1 1.8-0.4 3.6-1 5.2-1.1 3.3-3.2 6.1-5.5 8.4s-4.9 4-7.5 5.6c-2.6 1.5-5.1 2.9-7.6 4.3l-7.7 4.1c-5.1 2.7-10.3 5.3-15.5 7.9s-10.5 5-15.7 7.4-10.6 4.7-15.9 7.1c-5.3 2.3-10.6 4.5-16 6.7 3.5-1.6 6.9-3.2 10.4-4.8s7-3.1 10.5-4.6 7.1-2.9 10.7-4.3c1.8-0.7 3.6-1.3 5.4-1.9s3.6-1.2 5.5-1.8c1.8-0.5 3.7-1.1 5.5-1.6 1.9-0.5 3.7-1 5.6-1.4 0.9-0.2 1.9-0.4 2.8-0.6l2.8-0.5c1.9-0.4 3.8-0.6 5.7-0.9s3.8-0.4 5.8-0.6c1.9-0.1 3.8-0.2 5.8-0.3 1 0 2.1 0.1 3.2 0.3 1.1 0.3 2.2 0.7 3.2 1.7 0.5 0.5 0.8 1 1.1 1.6s0.4 1.3 0.4 1.9c0.1 1.2-0.2 2.3-0.4 3.2-0.9 3.7-2 7.5-3.2 11.1-0.6 1.8-1.2 3.7-1.9 5.5s-1.3 3.6-2.2 5.4c-0.8 1.8-1.8 3.6-3.1 5.2-1.3 1.7-2.9 3.1-4.5 4.3-1.7 1.2-3.5 2.1-5.3 2.9-0.9 0.4-1.8 0.8-2.7 1.2l-2.7 1c-3.7 1.3-7.4 2.4-11.2 3.4-3.7 0.9-7.5 1.8-11.3 2.6-7.5 1.5-15 2.9-22.2 4.9l-0.6-4.1c9.1-0.2 18.3 0.1 27.3 1.1l3.4 0.4c1.2 0.1 2.4 0.3 3.7 0.7 1.2 0.4 2.6 0.9 3.8 1.9 0.6 0.5 1.2 1.1 1.6 1.7l0.2 0.2 0.1 0.2v0.1l0.2 0.4c0.1 0.3 0.3 0.8 0.4 1.2 0.4 1.6 0.3 3.1-0.1 4.5s-1 2.5-1.7 3.6-1.5 2.1-2.3 3l-2.5 2.5-2.7 2.4c-0.9 0.8-1.9 1.4-2.8 2.1-1.9 1.3-3.9 2.6-6 3.7-1 0.6-2.1 1-3.2 1.5s-2.2 0.9-3.3 1.3c-0.6 0.2-1.1 0.4-1.7 0.6l-1.7 0.5-1.7 0.5-1.7 0.4-1.7 0.4c-0.6 0.1-1.2 0.2-1.7 0.3-1.2 0.2-2.3 0.4-3.5 0.5-2.3 0.3-4.7 0.3-7 0.3-1.2-0.1-2.4-0.1-3.5-0.2-1.2-0.2-2.3-0.3-3.5-0.5s-2.3-0.4-3.5-0.7l-3.4-0.9 1.6-3.8 10.3 5.4 2.6 1.4c0.9 0.5 1.8 1 2.7 1.7s1.8 1.4 2.5 2.4 1.4 2.3 1.4 3.7v1c0 0.4-0.1 0.7-0.2 1.1-0.2 0.6-0.4 1.2-0.7 1.7-0.6 1-1.2 1.9-1.8 2.7s-1.2 1.6-1.9 2.3c-0.6 0.8-1.3 1.5-2 2.2-2.7 2.9-5.8 5.6-9 7.9l-0.5-3c1.4 0.5 2.8 0.9 4.1 1.5l2 0.9 1 0.5 1 0.5c1.3 0.7 2.6 1.4 3.8 2.3l1.8 1.2 1.7 1.4c2.3 1.8 4.4 3.9 6.4 6.1 1 1.1 1.9 2.3 2.8 3.4 0.8 1.2 1.7 2.4 2.5 3.7 1.5 2.5 2.9 5.1 4 7.9l0.8 2.1 0.7 2.1c0.5 1.4 0.8 2.9 1.1 4.3 0.1 0.4 0.2 0.7 0.2 1.1l0.2 1.1 0.3 2.2c0.2 1.5 0.2 2.9 0.3 4.5 0 0.8 0 1.7-0.4 2.8-0.2 0.5-0.4 1.1-0.8 1.6-0.4 0.6-1 1.1-1.7 1.4l-0.2 0.1-0.3 0.1c-0.2 0.1-0.4 0.1-0.5 0.1-0.3 0.1-0.6 0.1-0.9 0.1-0.6 0-1-0.1-1.4-0.1l-2.2-0.5-2.1-0.4-2.1-0.6-2.1-0.6c-0.7-0.2-1.4-0.5-2.1-0.7-1.4-0.5-2.7-1-4.1-1.6-1.3-0.6-2.7-1.2-3.9-1.9-2.6-1.3-5.1-2.9-7.4-4.6-2.4-1.7-4.6-3.5-6.7-5.5-1-1-2.1-2-3.1-3.1s-2-2.1-2.9-3.2-1.8-2.2-2.6-3.4l-2.4-3.6c-0.7-1.2-1.4-2.5-2.1-3.7-0.6-1.3-1.3-2.6-1.8-3.9l-1.6-4-1.2-4.1 0.6 1.8 0.3 0.9 0.3 0.9 0.7 1.7 0.8 1.7c0.5 1.1 1.1 2.2 1.7 3.3 0.6 1 1.2 2.1 1.9 3.1 1.3 2.1 2.7 4.1 4 6.1l4.1 6.1c1.4 2.1 2.7 4.2 3.9 6.3 1.2 2.2 2.3 4.4 3.3 6.8 0.9 2.3 1.8 4.9 1.5 7.7l-0.1 0.6-0.1 0.5c-0.1 0.4-0.2 0.7-0.3 1.1-0.3 0.7-0.6 1.3-1 1.9-0.8 1.2-2.1 2.2-3.6 2.5-0.2 0-0.3 0.1-0.6 0.1-0.2 0-0.3 0-0.5 0.1h-1.2c-0.7-0.1-1.4-0.3-2.1-0.6-1.3-0.5-2.4-1.3-3.4-2-1-0.8-1.9-1.5-2.9-2.3-0.9-0.9-1.9-1.7-2.8-2.5-0.9-0.9-1.8-1.7-2.6-2.7l-1.3-1.4-1.2-1.4c-1.6-1.9-3-4-4.4-6.1-0.7-1-1.3-2.1-1.9-3.2s-1.2-2.2-1.7-3.3c-1-2.3-2-4.5-2.8-6.9l-0.6-1.8-0.5-1.8c-0.4-1.2-0.6-2.4-0.9-3.6s-0.4-2.4-0.7-3.6c-0.2-1.2-0.3-2.5-0.4-3.7 0.4 2.4 1 4.8 1.6 7.2 0.3 1.2 0.7 2.4 1.1 3.5l0.6 1.7 0.7 1.7c0.9 2.3 2 4.5 3.1 6.6 0.6 1.1 1.2 2.1 1.8 3.2 0.7 1 1.3 2.1 2 3.1 1.4 2 2.8 3.9 4.4 5.8l1.2 1.4 1.2 1.3c0.8 0.9 1.7 1.7 2.6 2.5 0.9 0.9 1.8 1.6 2.7 2.4s2 1.5 2.9 2.2c1.9 1.4 4 2.5 5.8 2s3.2-2.5 3.4-4.6-0.4-4.4-1.3-6.6c-0.5-1.1-0.9-2.2-1.4-3.3s-1-2.2-1.6-3.2c-1.1-2.1-2.4-4.2-3.7-6.3-2.5-4.2-5.3-8.3-7.6-12.7-0.6-1.1-1.1-2.2-1.7-3.3-0.5-1.1-1-2.3-1.4-3.4-0.9-2.3-1.5-4.7-2-7.1l1.7 3.9 2 3.7c0.7 1.2 1.5 2.4 2.2 3.6 0.8 1.2 1.6 2.3 2.4 3.4s1.7 2.2 2.6 3.3 1.9 2.1 2.8 3.1 2 1.9 3 2.9 2.1 1.8 3.1 2.7c2.1 1.8 4.3 3.4 6.7 4.9 1.1 0.8 2.4 1.4 3.5 2.1 1.2 0.7 2.4 1.3 3.6 1.9s2.5 1.1 3.8 1.7c1.2 0.6 2.6 1 3.8 1.4 1.3 0.5 2.6 0.8 3.9 1.2 0.7 0.2 1.3 0.4 2 0.5l2.1 0.4 2 0.4c0.6 0.1 0.9 0 0.8 0 0 0-0.1 0.1-0.1 0 0 0 0.1-0.1 0.1-0.3 0.1-0.3 0.1-0.8 0.1-1.4-0.1-1.3-0.2-2.7-0.3-4l-0.3-2-0.1-1c-0.1-0.3-0.1-0.7-0.2-1-0.3-1.3-0.6-2.6-1-3.9l-0.6-1.9-0.7-1.9c-0.9-2.5-2.2-4.9-3.6-7.2-0.7-1.2-1.5-2.3-2.2-3.4-0.8-1.1-1.6-2.2-2.5-3.2-1.8-2-3.7-4-5.7-5.7l-1.5-1.3-1.6-1.2c-1.1-0.8-2.2-1.5-3.4-2.2l-0.9-0.5-0.9-0.5-1.8-0.9c-1.2-0.6-2.5-1.1-3.7-1.6l-2.8-1.2 2.3-1.7c3-2.3 5.8-4.8 8.3-7.6 0.6-0.7 1.2-1.4 1.8-2.1s1.2-1.4 1.7-2.2c0.6-0.8 1.1-1.5 1.4-2.2 0.2-0.3 0.3-0.7 0.4-1 0-0.2 0.1-0.3 0.1-0.4v-0.3 0.1-0.2c0-0.5-0.3-1.1-0.7-1.6s-1-1.1-1.7-1.6-1.5-0.9-2.3-1.3l-2.6-1.3-10.4-5.2-18-9.1 19.6 5.3 3.1 0.8c1.1 0.2 2.1 0.4 3.2 0.6s2.1 0.3 3.2 0.4 2.2 0.1 3.2 0.2c2.2 0 4.3 0 6.5-0.3 1.1-0.1 2.2-0.3 3.2-0.4 0.5-0.1 1.1-0.2 1.6-0.3l1.6-0.4 1.6-0.4 1.6-0.5 1.6-0.5 1.5-0.6 3-1.2c1-0.5 2-0.9 2.9-1.4 1.9-1 3.8-2.2 5.5-3.4 0.9-0.7 1.8-1.3 2.6-2l2.4-2.1 2.3-2.3c0.7-0.7 1.3-1.5 1.8-2.4 0.5-0.8 0.9-1.7 1.2-2.5 0.2-0.8 0.3-1.6 0.1-2.2 0-0.1 0-0.1-0.1-0.2v-0.2l-0.2-0.4v-0.1c0.1 0.3 0 0.1 0.1 0.1l-0.1-0.1c-0.2-0.3-0.4-0.5-0.7-0.8-0.6-0.5-1.4-0.8-2.3-1.1s-1.9-0.4-3-0.6l-3.3-0.4c-8.9-1-17.8-1.4-26.8-1.2l-16.9 0.3 16.3-4.4c7.5-2 15.1-3.4 22.5-4.9 3.7-0.7 7.5-1.5 11.1-2.4 3.7-0.9 7.3-1.9 10.8-3.1l2.7-1c0.8-0.3 1.7-0.7 2.5-1 1.7-0.7 3.3-1.5 4.8-2.5s2.8-2.1 3.8-3.5c1.1-1.4 2-2.9 2.8-4.6 0.8-1.6 1.5-3.4 2.2-5.2s1.3-3.5 1.9-5.3c1.2-3.6 2.3-7.2 3.3-10.9 0.2-0.9 0.4-1.7 0.4-2.4s-0.2-1.2-0.6-1.7c-0.8-0.9-2.6-1.3-4.4-1.3s-3.8 0.1-5.6 0.1c-1.9 0.1-3.8 0.2-5.6 0.4-1.9 0.2-3.8 0.4-5.6 0.7l-2.8 0.4c-0.9 0.2-1.9 0.4-2.8 0.5-1.9 0.3-3.7 0.8-5.6 1.2s-3.7 0.9-5.5 1.4-3.6 1.1-5.5 1.6c-1.8 0.6-3.6 1.1-5.4 1.7-3.6 1.2-7.2 2.5-10.8 3.8s-7.1 2.8-10.7 4.2l-10.6 4.3c5-2.9 10.1-5.7 15.1-8.6l15.2-8.4 15.1-8.4c5-2.8 10-5.7 15-8.6l7.5-4.3c2.5-1.5 5-2.9 7.3-4.4s4.5-3.1 6.3-4.9c0.2-0.2 0.4-0.4 0.6-0.7l0.4-0.4 0.1-0.1c0.1-0.1 0 0 0 0l0.1-0.2c0.4-0.5 0.7-1 1.1-1.5 0.7-1 1.2-2.1 1.6-3.2s0.6-2.2 0.6-3.3v-0.8c0-0.3 0-0.4-0.1-0.7l-0.1-0.5-0.1-0.3v0.1-0.1c-0.1-0.2-0.1-0.5-0.2-0.7-0.7-1.9-2.3-3.6-4.2-4.9-1-0.6-2-1.1-3.2-1.5-0.3-0.1-0.6-0.2-0.8-0.3-0.3-0.1-0.5-0.1-0.8-0.2l-0.9-0.2-0.9-0.1c-2.5-0.2-5 0-7.7 0.5-1.3 0.3-2.6 0.6-3.9 1l-2 0.6-1 0.3-1 0.4-4 1.5c-1.3 0.5-2.7 0.9-4 1.5-5.3 2.1-10.4 4.5-15.4 7.1-2.5 1.4-5 2.6-7.4 4.2l-3.7 2.2c-1.2 0.7-2.4 1.5-3.6 2.3l-3.6 2.3-3.5 2.5c-1.2 0.8-2.3 1.6-3.5 2.5l-3.4 2.6c-1.1 0.9-2.3 1.7-3.4 2.6l-3.3 2.7c-2.2 1.8-4.4 3.7-6.5 5.6-4.3 3.8-8.4 7.8-12.4 11.9-2 2-4 4.2-6 6.2-2 2.1-3.9 4.3-5.8 6.4-1.9 2.2-3.7 4.4-5.6 6.6l-5.3 7.2z"/>
 </g>
 <g class="st27">
  <path class="st28" d="m530.6 400c1.2-0.3 2.4-0.6 3.6-0.8s2.4-0.3 3.6-0.4 2.5 0 3.8 0.1c1.3 0.2 2.6 0.4 3.8 0.8 1.3 0.4 2.5 1 3.7 1.8 0.6 0.4 1.1 0.8 1.7 1.3 0.3 0.2 0.5 0.5 0.8 0.8l0.4 0.4 0.1 0.1 0.1 0.1 0.1 0.2c0.3 0.4 0.9 1.2 1.2 1.7 0.4 0.6 0.7 1.3 0.9 1.9 0.5 1.3 0.9 2.6 1.2 3.9s0.4 2.6 0.5 3.8c0 0.6 0.1 1.2 0.1 1.9v0.9c0 0.4 0 0.8-0.1 1.2-0.1 0.8-0.3 1.9-1.2 3-0.2 0.3-0.5 0.5-0.7 0.7l-0.2 0.2-0.1 0.1c-0.1 0.1-0.4 0.2-0.5 0.3-0.6 0.3-1.2 0.4-1.7 0.4-1 0-1.8-0.2-2.4-0.4s-1.1-0.4-1.7-0.6c-1.1-0.4-2.2-0.8-3.3-1.2s-2.2-0.8-3.3-1.3c-1.1-0.4-2.2-0.9-3.3-1.4s-2.2-1-3.2-1.5c1.9-1.2 3.3-0.9 4.4-0.2l3.6 1.8c1.2 0.6 2.3 1.3 3.6 2.2 0.6 0.5 1.2 1 1.8 1.6 0.1 0.2 0.3 0.3 0.4 0.5l0.1 0.1v0.1l0.1 0.1 0.1 0.2 0.2 0.4 0.3 0.6c0.7 1.7 0.8 3.3 0.6 4.8s-0.7 2.9-1.2 4.2-1.2 2.5-1.8 3.7c-0.3 0.6-0.7 1.2-1.2 1.9-0.5 0.6-1.2 1.3-2.3 1.7l-0.2 0.1h-0.2c-0.1 0-0.2 0-0.4 0.1-0.3 0-0.5 0.1-0.8 0.1-0.5 0-0.9-0.1-1.3-0.2-0.8-0.2-1.4-0.5-2-0.7-1.2-0.4-2.5-1-3.7-1.5-2.4-1.1-4.8-2.3-7.1-3.6-1.1-0.7-2.3-1.4-3.4-2.1s-2.2-1.4-3.2-2.2c-2.1-1.6-4.1-3.2-6-5l3.3 2.1c1.1 0.7 2.2 1.3 3.4 2 2.3 1.3 4.6 2.4 6.9 3.5s4.7 2 7.1 2.8c1.2 0.4 2.4 0.8 3.6 1.2 0.6 0.2 1.2 0.4 1.7 0.5 0.2 0 0.5 0.1 0.6 0h0.4s0.1 0 0 0c0.4-0.2 1-1 1.6-2.2 0.6-1.1 1.1-2.2 1.5-3.3s0.7-2.2 0.8-3.3c0.1-0.5 0-1 0-1.5-0.1-0.4-0.2-1-0.3-1.3 0-0.1 0-0.1-0.1-0.3l-0.3-0.4-0.1-0.2 0.1 0.1v-0.1c-0.1-0.1-0.1-0.2-0.2-0.3-0.3-0.3-0.7-0.7-1.1-1-0.9-0.6-2-1.2-3.1-1.8s-2.3-1.2-3.4-1.7c-1.2-0.5-2.2-1.1-2.7-3.4 1.2 0 2.4 0 3.6 0.1s2.4 0.1 3.6 0.3c1.2 0.1 2.4 0.2 3.5 0.4 1.2 0.1 2.3 0.3 3.5 0.5l1.7 0.3c0.5 0.1 0.9 0.1 1 0s-0.2 0-0.3 0.1-0.1 0-0.1-0.3v-0.6l-0.1-0.8-0.2-1.6c-0.1-1.1-0.3-2.1-0.5-3.1s-0.5-2-0.9-2.8c-0.2-0.4-0.4-0.9-0.6-1.3-0.3-0.4-0.3-0.6-0.7-1.2-0.5-0.7-1.1-1.4-1.8-2-0.3-0.3-0.7-0.6-1.1-0.9s-0.8-0.5-1.3-0.8c-0.9-0.5-1.9-0.9-2.9-1.3s-2.1-0.7-3.2-1-2.2-0.6-3.4-0.9c-1.4-0.5-2.6-0.8-3.8-1.2z"/>
 </g>
 <g class="st27">
  <path class="st28" d="m410.5 154.7c0.1-1.5 0.6-3 1.2-4.4s1.4-2.8 2.4-4c1.9-2.5 4.3-4.6 7-6.1l0.5-0.3 0.3-0.2 0.2-0.1c0.3-0.2 0.6-0.3 1-0.5 0.7-0.4 1.4-0.7 2.2-0.9 1.4-0.6 2.9-1 4.4-1.4 3-0.8 6-1.3 8.9-1.6l1.1-0.1 0.6-0.1h0.6c0.9-0.1 1.7-0.1 2.5 0 0.9 0.1 1.7 0.2 2.6 0.6 0.9 0.3 1.8 0.8 2.6 1.7 0.4 0.4 0.7 0.9 0.8 1.5l0.1 0.4v0.3c0 0.1 0.1 0.3 0.1 0.5v0.4c0 1.1-0.3 2-0.6 2.7-0.3 0.8-0.6 1.4-0.9 2.1l-0.9 2-1.9 4c-0.6 1.3-1.3 2.7-1.9 4-1.3 2.7-2.7 5.3-4.1 7.9 1.9-4.3 4.1-8.6 6.7-12.5 1.3-2 2.8-3.9 4.3-5.7 1.6-1.8 3.3-3.5 5.1-5.1s3.8-3 5.9-4.2 4.4-2.3 6.7-3c2.3-0.8 4.8-1.3 7.2-1.6 2.5-0.3 5-0.3 7.5 0s5 0.9 7.3 1.9l1.7 0.8 1.7 0.9c1.1 0.6 2.2 1.4 3.2 2.4 0.5 0.5 1 1.1 1.3 1.8 0.1 0.2 0.2 0.3 0.3 0.5 0 0.1 0.1 0.2 0.1 0.3l0.1 0.1v0.1l0.1 0.1c0.1 0.3 0.2 0.5 0.3 0.9 0.2 0.9 0.3 1.7 0.2 2.4 0 0.8-0.2 1.5-0.4 2.2-0.9 2.7-2.6 4.8-4.2 6.6-0.8 0.9-1.7 1.8-2.5 2.6l-2.4 2.6c-1.6 1.7-3.3 3.4-5 5s-3.5 3.2-5.3 4.7-3.8 2.9-5.8 4.2c8.1-5.9 16.3-11.8 25.4-16.2 1.1-0.6 2.3-1.1 3.5-1.6s2.3-1 3.5-1.4c1.2-0.5 2.4-0.8 3.6-1.2s2.5-0.7 3.9-0.8c1.3-0.1 2.9 0.1 4.2 0.7 1.4 0.7 2.4 1.7 3.2 2.9 1.5 2.4 2.2 5 2.7 7.5h-0.2v0.5l0.1 0.5 0.1 1.1c0.1 0.7 0.2 1.4 0.2 2.2 0.1 1.5 0.1 2.9-0.1 4.4s-0.5 3-1.1 4.4l-0.1 0.3v0.2l-0.1 0.1-0.2 0.5c-0.1 0.3-0.3 0.6-0.5 1-0.4 0.7-0.9 1.3-1.3 1.9-2 2.3-4.5 4-7.1 5.2-2.6 1.3-5.3 2.2-8 3.1l-0.5-1.2c1.9-0.8 3.8-1.6 5.8-2.2s4.1-1 6.2-0.9c1.1 0 2.1 0.2 3.1 0.5s2 0.7 2.9 1.2 1.7 1.2 2.4 2 1.2 1.7 1.5 2.8c0.6 2 0.4 4.2-0.2 6.2-0.7 2-1.9 3.7-3.3 5.1-3 2.9-6.8 4.5-10.6 6 1.9-0.8 3.7-1.7 5.5-2.7s3.5-2.2 4.9-3.6 2.5-3.2 3.1-5.1 0.7-4 0.1-5.8c-0.3-0.9-0.8-1.8-1.5-2.5-0.6-0.7-1.4-1.3-2.3-1.8-1.7-0.9-3.7-1.4-5.6-1.4-4 0-7.7 1.7-11.4 3.3l-0.5-1.2c2.7-1 5.3-2 7.8-3.3 0.6-0.3 1.2-0.7 1.8-1 0.6-0.4 1.2-0.7 1.7-1.2 0.6-0.4 1.1-0.9 1.6-1.3 0.5-0.5 0.9-1 1.4-1.5 0.4-0.5 0.8-1.1 1.1-1.6l0.2-0.4 0.2-0.5 0.2-0.5 0.1-0.1v-0.1l0.1-0.2c0.5-1.2 0.7-2.5 0.8-3.9 0.1-1.3 0.1-2.7-0.1-4.1-0.1-0.7-0.1-1.4-0.3-2.1l-0.2-1-0.1-0.5v-0.5c-0.5 0.1-0.1 0-0.2 0-0.3-2.4-0.8-4.8-2-6.7-0.6-0.9-1.3-1.7-2.2-2.2-1-0.5-2-0.7-3.1-0.7s-2.3 0.2-3.5 0.5-2.4 0.6-3.6 1-2.4 0.8-3.5 1.2c-1.2 0.4-2.3 0.9-3.5 1.4-9.2 3.9-17.6 9.4-26 14.9 1.2-2.1 2.6-4.1 4-6s2.9-3.7 4.5-5.5 3.2-3.5 4.8-5.2l2.5-2.5c0.8-0.8 1.7-1.7 2.4-2.5 1.5-1.6 2.8-3.4 3.4-5.2 0.1-0.4 0.2-0.9 0.3-1.3s0-0.8 0-1.1c0-0.2-0.2-0.5-0.2-0.8 0 0 0.1 0.2 0 0.1v-0.1s0-0.1-0.1-0.1c0-0.1-0.1-0.2-0.1-0.3-0.2-0.4-0.5-0.7-0.8-1.1-0.6-0.7-1.4-1.3-2.4-1.9l-1.4-0.8-1.5-0.7c-2-0.9-4.1-1.5-6.3-1.8-4.4-0.7-9-0.2-13.3 1-2.2 0.6-4.3 1.5-6.3 2.5-2.1 1-4 2.3-5.8 3.7s-3.6 2.9-5.2 4.6-3.2 3.4-4.6 5.3c-1.5 1.8-2.8 3.7-4.1 5.7s-2.5 4-3.7 6c0.8-2.9 1.7-5.7 2.6-8.5 0.4-1.4 0.9-2.8 1.4-4.2l1.4-4.2 0.7-2.1c0.2-0.7 0.5-1.4 0.7-2s0.3-1.2 0.2-1.6v-0.4 0.1l-0.1-0.1c-0.1-0.2-0.2-0.3-0.3-0.4-0.4-0.5-1.6-0.8-2.8-0.9-0.6 0-1.3 0-1.9 0.1l-2.1 0.3c-2.9 0.4-5.7 0.9-8.4 1.7-1.4 0.3-2.7 0.8-4 1.2-0.7 0.2-1.3 0.5-1.9 0.7-0.3 0.1-0.7 0.3-1 0.4l-0.3 0.1-0.2 0.1-0.5 0.2c-2.5 1.2-4.8 2.7-7 4.6-1 0.9-2 2-2.9 3.1-1.1 1.2-1.9 2.4-2.6 3.8z"/>
 </g>
 <linearGradient id="cr" x1="404.92" x2="407.78" y1="282.36" y2="209.92" gradientTransform="matrix(.9996 .02893 -.02893 .9996 8.1876 -11.618)" gradientUnits="userSpaceOnUse">
  <stop stop-color="#B1615D" offset="0"/>
  <stop stop-color="#A84E4E" offset=".1342"/>
  <stop stop-color="#912431" offset=".5"/>
  <stop stop-color="#6E2A35" offset=".8137"/>
  <stop stop-color="#5C2C37" offset="1"/>
 </linearGradient>
 <path class="st29" d="m374.1 257.6c-3.5-6.3-3.9-14-2.1-21s5.8-13.2 10.4-18.7c5.5-6.5 12.5-12.2 20.9-13.8 8.6-1.6 17.5 1.4 25.1 5.8 4.5 2.7 8.8 5.9 11.7 10.3 4.3 6.7 4.8 15.2 3.9 23.2-1.2 10.6-5.1 21.5-13.3 28.5-15.3 13-47.4 2-56.6-14.3z"/>
 <linearGradient id="cs" x1="458.04" x2="459.33" y1="291.67" y2="259.09" gradientTransform="matrix(.9996 .02893 -.02893 .9996 8.1876 -11.618)" gradientUnits="userSpaceOnUse">
  <stop stop-color="#B1615D" offset="0"/>
  <stop stop-color="#A84E4E" offset=".1342"/>
  <stop stop-color="#912431" offset=".5"/>
  <stop stop-color="#6E2A35" offset=".8137"/>
  <stop stop-color="#5C2C37" offset="1"/>
 </linearGradient>
 <path class="st30" d="m445.9 267c1.7-4 4.4-7.9 8.5-9 5.4-1.5 10.8 2.4 14.2 6.8 2 2.6 3.8 5.5 4.5 8.8 0.6 2.7 0.5 5.5 0 8.3-0.5 2.3-1.3 4.5-2.8 6.2-4.8 5.1-14.4 3.2-19.4-0.6-7.6-5.9-8.6-11.9-5-20.5z"/>
 <linearGradient id="cu" x1="463.69" x2="464.65" y1="247.09" y2="222.66" gradientTransform="matrix(.9996 .02893 -.02893 .9996 8.1876 -11.618)" gradientUnits="userSpaceOnUse">
  <stop stop-color="#B1615D" offset="0"/>
  <stop stop-color="#A84E4E" offset=".1342"/>
  <stop stop-color="#912431" offset=".5"/>
  <stop stop-color="#6E2A35" offset=".8137"/>
  <stop stop-color="#5C2C37" offset="1"/>
 </linearGradient>
 <path class="st31" d="m455.4 239.1c-1.5-4-1-8.7 1.3-12.3 1.7-2.6 4.5-4.7 7.6-4.7 4.4 0 7.7 3.9 9.7 7.8 1.6 3.1 2.8 6.6 2 9.9-2.7 11.4-17.2 8.3-20.6-0.7z"/>
 <linearGradient id="cv" x1="482.22" x2="483.06" y1="268.89" y2="247.66" gradientTransform="matrix(.9996 .02893 -.02893 .9996 8.1876 -11.618)" gradientUnits="userSpaceOnUse">
  <stop stop-color="#B1615D" offset="0"/>
  <stop stop-color="#A84E4E" offset=".1342"/>
  <stop stop-color="#912431" offset=".5"/>
  <stop stop-color="#6E2A35" offset=".8137"/>
  <stop stop-color="#5C2C37" offset="1"/>
 </linearGradient>
 <path class="st32" d="m474 259.1c-0.5-0.8-1.1-1.7-1.3-2.7-0.4-2.6 2-4.9 4.4-6.1s5.1-1.9 7.7-2.1c1.6-0.1 3.4 0 4.7 0.9 1.4 0.9 2.1 2.6 2.7 4.1 0.9 2.2 1.7 4.4 1.7 6.8 0 3.3-2 6.6-4.9 8.3-8.2 4.7-11.4-3.5-15-9.2z"/>
 <linearGradient id="cw" x1="504.94" x2="506.81" y1="391.09" y2="343.76" gradientTransform="matrix(.9996 .02893 -.02893 .9996 8.1876 -11.618)" gradientUnits="userSpaceOnUse">
  <stop stop-color="#B1615D" offset="0"/>
  <stop stop-color="#A84E4E" offset=".1342"/>
  <stop stop-color="#912431" offset=".5"/>
  <stop stop-color="#6E2A35" offset=".8137"/>
  <stop stop-color="#5C2C37" offset="1"/>
 </linearGradient>
 <path class="st33" d="m484.2 359.9c1.4-8.3 7.5-16.5 15.8-17.4 2.8-0.3 5.7 0.2 8.4 1.1 7.5 2.4 14.4 8.4 15.2 16.2 0.7 7-3.4 13.5-7.8 18.9-3.4 4.1-7.2 8.2-12.1 10.2-18.2 7.5-21.6-16.7-19.5-29z"/>
 <linearGradient id="az" x1="513.67" x2="514.45" y1="332.13" y2="312.17" gradientTransform="matrix(.9996 .02893 -.02893 .9996 8.1876 -11.618)" gradientUnits="userSpaceOnUse">
  <stop stop-color="#B1615D" offset="0"/>
  <stop stop-color="#A84E4E" offset=".1342"/>
  <stop stop-color="#912431" offset=".5"/>
  <stop stop-color="#6E2A35" offset=".8137"/>
  <stop stop-color="#5C2C37" offset="1"/>
 </linearGradient>
 <path class="st34" d="m509 316.5c1.1-1.1 2.4-2.1 3.9-2.6 2.6-0.8 5.6 0.4 7.4 2.5s2.5 5 2.4 7.7c-0.1 7-5 12.4-11.5 8.7-1.8-1-8-5.2-8.4-7.3-0.4-2.4 4.6-7.4 6.2-9z"/>
 <linearGradient id="ba" x1="481.16" x2="481.95" y1="336.32" y2="316.28" gradientTransform="matrix(.9996 .02893 -.02893 .9996 8.1876 -11.618)" gradientUnits="userSpaceOnUse">
  <stop stop-color="#B1615D" offset="0"/>
  <stop stop-color="#A84E4E" offset=".1342"/>
  <stop stop-color="#912431" offset=".5"/>
  <stop stop-color="#6E2A35" offset=".8137"/>
  <stop stop-color="#5C2C37" offset="1"/>
 </linearGradient>
 <path class="st35" d="m471.3 328.8c-0.4-0.7-0.7-1.4-0.7-2.1 0-1.1 0.5-2 1-2.9 1.6-2.7 3.4-5.6 6.4-6.6 1.9-0.7 4.1-0.4 5.9 0.4 4.8 2.2 7.3 8.4 5.2 13.3-1.4 3.4-5.5 6.4-9.4 6.2-4.8-0.3-6.3-4.3-8.4-8.3z"/>
 <linearGradient id="bb" x1="336.94" x2="338.12" y1="236.55" y2="206.85" gradientTransform="matrix(.9996 .02893 -.02893 .9996 8.1876 -11.618)" gradientUnits="userSpaceOnUse">
  <stop stop-color="#B1615D" offset="0"/>
  <stop stop-color="#A84E4E" offset=".1342"/>
  <stop stop-color="#912431" offset=".5"/>
  <stop stop-color="#6E2A35" offset=".8137"/>
  <stop stop-color="#5C2C37" offset="1"/>
 </linearGradient>
 <path class="st36" d="m327.4 223.7c-0.6-0.6-1.2-1.3-1.5-2.1-0.4-1-0.2-2.1 0-3.1 1-4.9 3.7-9.4 7.4-12.6 2-1.7 4.4-3.2 7-3.5 4.2-0.5 8.4 2.2 10.5 5.8 2.1 3.7 2.3 8.2 1.4 12.3-0.7 3.4-2.3 6.8-4.8 9.1-7.5 7.2-14.5-0.2-20-5.9z"/>
 <linearGradient id="bc" x1="368.49" x2="369.46" y1="221.2" y2="196.71" gradientTransform="matrix(.9996 .02893 -.02893 .9996 8.1876 -11.618)" gradientUnits="userSpaceOnUse">
  <stop stop-color="#B1615D" offset="0"/>
  <stop stop-color="#A84E4E" offset=".1342"/>
  <stop stop-color="#912431" offset=".5"/>
  <stop stop-color="#6E2A35" offset=".8137"/>
  <stop stop-color="#5C2C37" offset="1"/>
 </linearGradient>
 <path class="st37" d="m364.6 196.4c1.9-1.4 4.1-2.7 6.5-2.8 3.6-0.3 7.1 2.2 8.6 5.5s1.1 7.3-0.6 10.5c-2.5 4.8-11.6 13-15.6 5.8-2.2-4.2-2.7-16.2 1.1-19z"/>
 <linearGradient id="bd" x1="342.36" x2="343.35" y1="430.25" y2="405.05" gradientTransform="matrix(.9996 .02893 -.02893 .9996 8.1876 -11.618)" gradientUnits="userSpaceOnUse">
  <stop stop-color="#B1615D" offset="0"/>
  <stop stop-color="#A84E4E" offset=".1342"/>
  <stop stop-color="#912431" offset=".5"/>
  <stop stop-color="#6E2A35" offset=".8137"/>
  <stop stop-color="#5C2C37" offset="1"/>
 </linearGradient>
 <path class="st38" d="m327.1 424.1c-0.8-0.2-1.6-0.4-2.2-1-0.9-1-0.9-2.5-0.6-3.8 1.5-7.4 6.8-14 13.7-17 1.9-0.8 3.9-1.4 6-1 3.8 0.6 6.5 4.2 7.9 7.8 1.5 4 2 8.6 0.1 12.4-4.4 8.7-17.7 4.4-24.9 2.6z"/>
 <linearGradient id="be" x1="373.17" x2="373.8" y1="432.13" y2="416.16" gradientTransform="matrix(.9996 .02893 -.02893 .9996 8.1876 -11.618)" gradientUnits="userSpaceOnUse">
  <stop stop-color="#B1615D" offset="0"/>
  <stop stop-color="#A84E4E" offset=".1342"/>
  <stop stop-color="#912431" offset=".5"/>
  <stop stop-color="#6E2A35" offset=".8137"/>
  <stop stop-color="#5C2C37" offset="1"/>
 </linearGradient>
 <path class="st39" d="m363.7 428.3c-0.2-4.2-0.1-8.5 0.4-12.7 0.1-0.5 0.1-1 0.4-1.4 0.5-0.6 1.3-0.7 2-0.7 3.4 0.1 6.8 2.2 8.1 5.4s0.4 7.2-2.3 9.4c-2.7 2.1-7 2.1-9.5-0.3"/>
 <linearGradient id="bf" x1="455.64" x2="456.79" y1="410.21" y2="380.95" gradientTransform="matrix(.9996 .02893 -.02893 .9996 8.1876 -11.618)" gradientUnits="userSpaceOnUse">
  <stop stop-color="#B1615D" offset="0"/>
  <stop stop-color="#A84E4E" offset=".1342"/>
  <stop stop-color="#912431" offset=".5"/>
  <stop stop-color="#6E2A35" offset=".8137"/>
  <stop stop-color="#5C2C37" offset="1"/>
 </linearGradient>
 <path class="st40" d="m443.7 387.4c2.2-3.5 5.3-7 9.5-7.5 3.2-0.3 6.3 1.3 8.8 3.4 2.8 2.3 5.1 5.3 6.1 8.8 2.3 7.9-3.8 15-11.3 17-6.1 1.6-15.1-1.5-20.3-4.4 0.6-5.9 4-12.3 7.2-17.3z"/>
 <radialGradient id="bh" cx="277.91" cy="327.83" r="22.34" gradientUnits="userSpaceOnUse">
  <stop stop-color="#7B2526" stop-opacity=".9153" offset="0"/>
  <stop stop-color="#9A0600" offset=".5108"/>
  <stop stop-color="#A52934" stop-opacity=".9" offset="1"/>
 </radialGradient>
 <path class="st41" d="m248.2 322s0.9-0.4 2.5-0.9c0.8-0.3 1.8-0.5 3-0.8s2.5-0.6 3.9-0.8c0.7-0.1 1.5-0.2 2.3-0.3s1.6-0.1 2.5-0.2c1.7-0.1 3.5-0.2 5.3-0.1 0.9 0 1.9 0 2.8 0.1 1 0.1 1.9 0.1 2.9 0.3 1.9 0.2 3.9 0.6 5.8 1s3.9 0.9 5.7 1.5c1.9 0.6 3.7 1.3 5.4 2 0.8 0.4 1.7 0.7 2.5 1.1s1.6 0.8 2.3 1.2c1.5 0.8 2.9 1.7 4.1 2.5 2.5 1.7 4.2 3.6 5.3 5 0.5 0.7 0.9 1.3 1.1 1.7l0.3 0.6s-0.2-0.2-0.5-0.4c-0.3-0.3-0.9-0.7-1.6-1.2-1.4-0.9-3.4-2.1-6-3.2-1.3-0.5-2.7-1.1-4.2-1.6-0.8-0.3-1.5-0.5-2.3-0.8-0.8-0.2-1.6-0.5-2.5-0.8-0.8-0.3-1.7-0.5-2.6-0.8s-1.8-0.5-2.6-0.7c-1.8-0.5-3.6-0.9-5.4-1.3s-3.7-0.7-5.5-1.1c-1.8-0.3-3.6-0.6-5.3-0.8s-3.4-0.4-5.1-0.5c-0.8-0.1-1.6-0.1-2.4-0.2-0.8 0-1.5-0.1-2.2-0.1-1.4-0.1-2.7-0.1-3.9-0.2-1.2 0-2.2-0.1-3-0.1-1.6 0-2.6-0.1-2.6-0.1z"/>
 <radialGradient id="bi" cx="337.72" cy="336.59" r="36.433" gradientTransform="matrix(.9996 .02893 -.02893 .9996 8.1876 -11.618)" gradientUnits="userSpaceOnUse">
  <stop stop-color="#fff" stop-opacity=".7" offset=".2888"/>
  <stop stop-color="#FFFEFB" stop-opacity=".6033" offset=".4035"/>
  <stop stop-color="#FFFBF1" stop-opacity=".4911" offset=".5364"/>
  <stop stop-color="#FFF6DE" stop-opacity=".3712" offset=".6786"/>
  <stop stop-color="#FFEFC4" stop-opacity=".2458" offset=".8271"/>
  <stop stop-color="#FFE6A0" stop-opacity=".1175" offset=".9793"/>
  <stop stop-color="#FFE59A" stop-opacity=".1" offset="1"/>
 </radialGradient>
 <path class="st42" d="m353.7 332.8c-2.9 11.9-5.9 24.2-13 34.2-3.2 4.6-7.2 8.6-9.8 13.6 1.9-3.2 5.1-5.3 7.9-7.7 7.1-6.2 11.5-15 14.1-24.1 2.5-9.1 3.3-18.5 4.1-27.9"/>
 <g class="st27">
  <path class="st28" d="m382.8 356.9s0.5 0.9 1.2 2.5 1.8 3.9 3.1 6.5c0.7 1.3 1.5 2.7 2.3 4.1 0.4 0.7 0.9 1.4 1.4 2 0.3 0.3 0.6 0.7 0.8 1 0.3 0.3 0.5 0.6 0.8 1 1.2 1.3 2.5 2.5 4 3.5s3.1 1.8 4.7 2.3c0.4 0.1 0.8 0.2 1.3 0.3 0.2 0.1 0.4 0.1 0.6 0.1l0.6 0.1c1.1 0.1 1.7 0.1 2.6 0 1.7-0.2 3.4-0.7 4.9-1.4s2.9-1.6 4-2.7c0.3-0.3 0.6-0.5 0.8-0.8 0.3-0.3 0.5-0.6 0.7-0.8s0.3-0.4 0.4-0.5c0 0 0.1-0.1 0-0.3-0.2-0.4-0.7-1.1-1-1.6l-1.2-1.5c-0.8-0.9-1.5-1.7-2.1-2.3s-1.1-1.1-1.5-1.4-0.6-0.5-0.6-0.5 0.2 0.1 0.7 0.3c0.4 0.2 1.1 0.5 1.9 0.9s1.7 1 2.7 1.8c0.5 0.4 1 0.8 1.5 1.3 0.3 0.2 0.5 0.5 0.8 0.8s0.5 0.6 0.8 1 0.5 1.1 0.4 1.9c-0.1 0.7-0.4 1.2-0.6 1.6-0.5 0.8-1 1.5-1.6 2.2-1.2 1.4-2.8 2.7-4.6 3.7s-3.9 1.8-6.1 2.1c-1 0.1-2.4 0.2-3.3 0.1h-0.5l-0.4-0.1c-0.3 0-0.6-0.1-0.8-0.1-0.6-0.1-1.1-0.2-1.6-0.4-2.2-0.6-4.2-1.7-5.9-3s-3.2-2.8-4.4-4.4c-0.3-0.4-0.6-0.8-0.9-1.2s-0.5-0.8-0.8-1.2c-0.5-0.9-0.9-1.6-1.3-2.5-0.8-1.6-1.4-3.2-1.8-4.7-0.9-2.9-1.4-5.4-1.7-7.1-0.2-1.6-0.3-2.6-0.3-2.6z"/>
 </g>
 <g class="st27">
  <path class="st28" d="m521.6 412s0.4 0.1 1 0.4c0.6 0.2 1.5 0.6 2.5 1 0.5 0.2 1 0.4 1.6 0.7 0.6 0.2 1.1 0.5 1.7 0.8s1.2 0.5 1.8 0.8 1.3 0.6 1.9 0.9 1.3 0.6 1.9 0.8c0.6 0.3 1.2 0.6 1.8 0.8 0.6 0.3 1.2 0.5 1.7 0.8 0.6 0.3 1.1 0.5 1.6 0.7l2.4 1.2c0.6 0.3 0.9 0.5 0.9 0.5s-0.4 0.1-1.1 0.3c-0.7 0.1-1.6 0.3-2.8 0.3s-2.5-0.1-3.9-0.4c-0.7-0.2-1.4-0.3-2.1-0.6-0.7-0.2-1.4-0.5-2.1-0.8s-1.4-0.7-2-1.1c-0.7-0.4-1.3-0.8-1.9-1.2s-1.1-0.9-1.6-1.3-0.9-0.9-1.3-1.3c-0.8-0.9-1.3-1.7-1.7-2.3-0.2-0.6-0.3-1-0.3-1z"/>
 </g>
 <g class="st27">
  <path class="st28" d="m496.8 191.1s0.7-0.6 1.9-1.6c0.6-0.5 1.3-1.1 2.2-1.7s1.9-1.4 3-2.1c2.3-1.5 5.1-3 8.5-4 1.7-0.5 3.5-0.8 5.4-0.9s4.1 0.1 6.2 1.3c0.5 0.3 1 0.6 1.4 1.1l0.2 0.2 0.3 0.4c0.2 0.3 0.4 0.5 0.6 0.7 0.6 1 1 2.1 1.2 3.2s0.2 2.1 0 3.2l-0.3 1.5c-0.1 0.3-0.1 0.4-0.3 0.8l-0.3 0.6c-0.9 1.8-2 3.1-3.1 4.3-1.2 1.1-2.3 2-3.4 2.8-2.2 1.7-4.5 2.6-6.1 2.7-0.8 0.1-1.5 0-1.9 0-0.4-0.1-0.6-0.1-0.6-0.1s0.2 0 0.6-0.1 1-0.2 1.7-0.5 1.5-0.7 2.3-1.4c0.8-0.6 1.7-1.4 2.5-2.3 0.9-0.9 1.8-2 2.7-3.1s1.6-2.4 2.1-3.6c0.1-0.1 0.1-0.4 0.2-0.6 0-0.1 0.1-0.3 0.1-0.4 0.1-0.3 0.1-0.7 0.2-1 0-0.7 0-1.3-0.1-2-0.1-0.6-0.4-1.2-0.7-1.7-0.1-0.1-0.2-0.3-0.2-0.3s0-0.1-0.1-0.1l-0.2-0.2c-0.2-0.1-0.4-0.4-0.7-0.5-1-0.6-2.5-0.9-4-0.9-1.6 0-3.2 0.2-4.7 0.5s-3 0.7-4.4 1.2-2.7 0.9-3.9 1.4c-2.4 1-4.4 1.9-5.9 2.5-1.6 0.4-2.4 0.7-2.4 0.7z"/>
 </g>
 <radialGradient id="bj" cx="265.99" cy="307.23" r="18.768" gradientTransform="matrix(.9996 .02893 -.02893 .9996 8.1876 -11.618)" gradientUnits="userSpaceOnUse">
  <stop stop-color="#fff" stop-opacity=".7" offset=".2888"/>
  <stop stop-color="#FFFEFB" stop-opacity=".6033" offset=".4035"/>
  <stop stop-color="#FFFBF1" stop-opacity=".4911" offset=".5364"/>
  <stop stop-color="#FFF6DE" stop-opacity=".3712" offset=".6786"/>
  <stop stop-color="#FFEFC4" stop-opacity=".2458" offset=".8271"/>
  <stop stop-color="#FFE6A0" stop-opacity=".1175" offset=".9793"/>
  <stop stop-color="#FFE59A" stop-opacity=".1" offset="1"/>
 </radialGradient>
 <path class="st43" d="m268.3 312.7c-2.8-0.1-6-0.7-7.4-3.2-0.6-1-0.7-2.4 0.2-3.2s2.3-0.5 3.4 0c1.6 0.7 3.1 1.7 4.7 2.2 3.6 1.3 7.6 0.6 11.1-1.1 3.4-1.6 6.2-4.2 9.1-6.5-3.7 8.4-12.1 12-21.1 11.8z"/>
 <circle class="Grafikstil_x0020_16" cx="283.5" cy="286" r="5.5"/>
 <g class="st44">
  <path class="st28" d="m478.3 203.3s0.7 0.4 2 1.1c0.7 0.4 1.5 0.8 2.4 1.3 0.9 0.6 2 1.2 3.2 2 1.2 0.7 2.4 1.6 3.8 2.6 1.4 0.9 2.8 2.1 4.4 3.3s3.1 2.6 4.8 3.9c0.8 0.7 1.6 1.5 2.5 2.3s1.7 1.6 2.6 2.4c3.5 3.3 7 7.1 10.6 11.3s7.1 8.7 10.6 13.6 6.9 10 10.3 15.2c3.4 5.3 6.7 10.8 9.7 16.4 3 5.7 5.7 11.6 7.7 17.7 2.1 6.1 3.5 12.3 4 18.5l0.1 1.2 0.1 0.6v0.6c0 0.7 0.1 1.5 0.1 2.2v2.2c0 0.8 0 1.5-0.1 2.3 0 1.5-0.2 2.9-0.3 4.4l-0.6 4.2c-0.9 5.5-2.5 10.6-4.3 15.1s-3.9 8.4-5.9 11.8l-1.5 2.4c-0.5 0.8-1 1.5-1.5 2.2-0.9 1.4-1.9 2.6-2.8 3.7-1.7 2.2-3.2 3.8-4.2 4.9s-1.6 1.7-1.6 1.7 0.4-0.7 1.3-1.9 2-3.1 3.4-5.4c0.7-1.2 1.5-2.5 2.2-4 0.4-0.7 0.8-1.5 1.2-2.3s0.8-1.6 1.2-2.5c1.6-3.5 3.1-7.4 4.5-11.9 0.3-1.1 0.6-2.3 0.9-3.4 0.3-1.2 0.5-2.4 0.8-3.6 0.2-1.2 0.4-2.5 0.7-3.7 0.2-1.3 0.3-2.5 0.5-3.8 0.1-1.3 0.2-2.6 0.3-4 0-1.3 0.1-2.7 0.1-4 0-0.7 0-1.3-0.1-2v-1l-0.1-1.1c-0.1-0.7-0.1-1.5-0.2-2.2v-0.5l-0.1-0.5-0.1-1.1-0.3-2.1c-0.1-0.7-0.3-1.4-0.4-2.1-0.2-1.4-0.6-2.8-0.9-4.3-0.8-2.8-1.6-5.7-2.6-8.5-2.1-5.6-4.6-11.2-7.5-16.7s-6.1-10.8-9.3-16.1-6.5-10.4-9.7-15.3-6.4-9.6-9.6-13.9c-1.6-2.2-3.2-4.2-4.8-6.2-0.8-1-1.6-2-2.3-2.9-0.8-0.9-1.6-1.8-2.3-2.7-1.5-1.8-3.1-3.4-4.5-5-1.5-1.5-2.8-3.1-4.2-4.4s-2.6-2.6-3.9-3.7c-1.2-1.1-2.3-2.2-3.4-3-1.1-0.9-2-1.7-2.8-2.4s-1.6-1.2-2.2-1.7c-1.3-0.7-1.9-1.2-1.9-1.2z"/>
 </g>
 <g class="st44">
  <path class="st28" d="m311.4 192.8l1.6-0.8c1.1-0.5 2.6-1.3 4.7-2.2 1-0.5 2.1-1 3.3-1.5s2.6-1 4.1-1.6 3-1.1 4.7-1.8c1.7-0.6 3.4-1.1 5.2-1.6s3.7-1.2 5.7-1.7 4.1-1 6.2-1.5c1.1-0.2 2.2-0.5 3.3-0.7s2.2-0.4 3.4-0.6c2.3-0.4 4.6-0.8 7-1.2 4.8-0.5 9.7-1.2 14.8-1.3 5-0.4 10.2-0.2 15.3-0.1 5.1 0.4 10.3 0.6 15.3 1.3 5 0.5 9.9 1.6 14.6 2.5 2.3 0.5 4.6 1.1 6.9 1.7 1.1 0.3 2.2 0.6 3.3 0.9s2.1 0.7 3.2 1c2.1 0.7 4.1 1.3 6.1 2s3.8 1.5 5.6 2.1c1.8 0.7 3.5 1.3 5.1 2s3.1 1.5 4.5 2.1c1.4 0.7 2.7 1.3 3.9 1.9s2.3 1.2 3.2 1.8c1.9 1.1 3.4 2 4.5 2.6 1 0.6 1.6 0.9 1.6 0.9s-0.6-0.2-1.7-0.6-2.8-0.9-4.9-1.7c-1-0.4-2.2-0.8-3.5-1.2s-2.6-0.8-4.1-1.3-3-0.9-4.7-1.5c-1.7-0.5-3.4-0.9-5.2-1.4s-3.7-1-5.7-1.5-4-0.9-6.1-1.4c-1-0.2-2.1-0.5-3.2-0.7l-3.3-0.6c-2.2-0.4-4.5-0.9-6.8-1.2s-4.7-0.7-7-1c-2.4-0.4-4.8-0.5-7.2-0.8-4.9-0.6-9.8-0.8-14.8-1.1-5-0.1-9.9-0.3-14.8-0.1-2.4 0.1-4.9 0-7.3 0.3-2.4 0.2-4.8 0.3-7.1 0.4-2.3 0.2-4.6 0.5-6.8 0.7l-3.3 0.3c-1.1 0.1-2.2 0.3-3.2 0.5-2.1 0.3-4.2 0.6-6.2 0.9s-3.9 0.7-5.8 1c-1.8 0.4-3.6 0.7-5.3 1-1.7 0.4-3.2 0.7-4.7 1.1-1.5 0.3-2.9 0.7-4.2 0.9-1.3 0.3-2.5 0.7-3.6 0.9-2.1 0.6-3.8 1-5 1.3-1 0.5-1.6 0.6-1.6 0.6z"/>
 </g>
 <g class="st44">
  <path class="st28" d="m401 163.5s0-0.2 0.1-0.6 0.1-1 0.3-1.8c0.1-0.8 0.4-1.7 0.7-2.7 0.2-0.5 0.4-1 0.6-1.6s0.5-1.1 0.8-1.8c0.6-1.2 1.3-2.5 2.2-3.7 0.9-1.3 1.9-2.6 3-3.8s2.4-2.4 3.9-3.5c1.4-1.1 2.9-2.1 4.5-3l1.2-0.6c0.3-0.2 0.8-0.4 1.2-0.6 0.9-0.4 1.7-0.7 2.5-1 1.7-0.6 3.4-1 5.1-1.3s3.3-0.4 4.8-0.4 3 0.1 4.3 0.2c0.7 0.1 1.3 0.2 1.9 0.3s1.2 0.3 1.7 0.4c1 0.3 1.9 0.6 2.6 0.9s1.3 0.6 1.6 0.7l0.6 0.3s-0.2 0-0.6 0.1-1 0.1-1.7 0.2-1.6 0.2-2.6 0.4-2.1 0.4-3.3 0.6c-1.2 0.3-2.4 0.5-3.8 0.9-1.3 0.3-2.7 0.8-4 1.2-1.4 0.5-2.8 1-4.1 1.6-0.7 0.3-1.3 0.6-2 0.9-0.3 0.2-0.6 0.3-1 0.5l-1 0.5c-1.3 0.7-2.6 1.5-3.9 2.3-1.2 0.8-2.5 1.7-3.6 2.6s-2.2 1.8-3.2 2.7-1.9 1.8-2.8 2.6c-0.9 0.9-1.6 1.7-2.3 2.4-0.7 0.8-1.3 1.4-1.8 2s-0.9 1-1.2 1.3c-0.6 0.6-0.7 0.8-0.7 0.8z"/>
 </g>
 <g class="st44">
  <path class="st28" d="m577.2 362s0.1 0.4 0.3 1c0.2 0.7 0.4 1.7 0.8 2.9 0.2 0.6 0.4 1.3 0.6 2 0.3 0.7 0.5 1.5 0.8 2.3s0.6 1.7 1 2.6 0.7 1.8 1.2 2.8c0.9 1.9 1.8 4 3 6.1 1.1 2.1 2.4 4.3 3.9 6.5 1.4 2.2 3.1 4.3 4.8 6.4 0.9 1 1.8 2.1 2.7 3 0.5 0.5 0.9 1 1.4 1.5l1.4 1.4c2.2 2.1 4.2 3.6 6.4 5.3 2.2 1.6 4.4 3.1 6.7 4.4s4.5 2.5 6.7 3.4c2.2 1 4.3 1.8 6.3 2.6 1 0.3 2 0.7 2.9 1s1.8 0.5 2.7 0.8c1.7 0.4 3.2 0.9 4.4 1.1 1.2 0.3 2.2 0.5 2.9 0.6s1 0.2 1 0.2-0.4 0.1-1.1 0.2-1.7 0.3-3 0.3c-0.6 0-1.4 0.1-2.2 0.1h-2.6c-0.9 0-1.9-0.1-2.9-0.2s-2.1-0.2-3.2-0.4c-2.2-0.4-4.7-0.8-7.2-1.6-2.5-0.7-5.1-1.7-7.7-2.9-1.3-0.6-2.6-1.3-3.9-2s-2.6-1.5-3.8-2.3c-2.5-1.6-5.1-3.8-7.1-5.6l-1.7-1.7c-0.6-0.5-1.1-1.1-1.6-1.7-1.1-1.1-2-2.3-2.9-3.5s-1.8-2.4-2.6-3.7c-0.8-1.2-1.5-2.5-2.2-3.8-1.3-2.5-2.5-5-3.4-7.5-0.9-2.4-1.5-4.8-2-7-0.2-1.1-0.4-2.2-0.6-3.2-0.1-1-0.3-2-0.3-2.9-0.1-0.9-0.1-1.8-0.1-2.6v-2.2c0-1.3 0.1-2.3 0.2-3-0.1-0.4 0-0.7 0-0.7z"/>
 </g>
 <g class="st44">
  <path class="st28" d="m448.8 309.1s0.2 0.2 0.4 0.6c0.3 0.4 0.7 1 1.1 1.8 0.5 0.8 1 1.8 1.5 3.1 0.5 1.2 1 2.6 1.3 4.2 0.8 3.2 1.1 7 0.9 11.1-0.1 2-0.4 4.1-0.8 6.2-0.2 0.9-0.4 2.1-0.7 3.1s-0.6 2.1-0.9 3.1c-0.7 2-1.4 4-2.2 5.9s-1.7 3.7-2.6 5.5c-1.8 3.5-3.7 6.5-5.4 9.2-0.9 1.3-1.8 2.5-2.6 3.5s-1.6 1.8-2.3 2.5-1.2 1.1-1.6 1.4-0.6 0.5-0.6 0.5 0.1-0.2 0.3-0.7 0.5-1.1 0.8-2c0.7-1.7 1.5-4.1 2.4-7 0.5-1.4 1-3 1.6-4.7 0.6-1.6 1.2-3.4 1.9-5.2 0.6-1.8 1.3-3.6 2-5.5 0.6-1.9 1.3-3.7 1.9-5.6 0.3-0.9 0.6-1.9 0.9-2.8 0.3-1 0.5-1.8 0.8-2.8 0.5-1.8 0.9-3.7 1.3-5.5 0.3-1.8 0.6-3.5 0.8-5.2s0.3-3.3 0.4-4.7c0.1-1.5 0.1-2.8 0-4.1 0-1.2-0.1-2.3-0.2-3.2 0-0.4-0.1-0.8-0.1-1.2s-0.1-0.7-0.1-0.9c-0.2-0.4-0.2-0.6-0.2-0.6z"/>
 </g>
 <g class="st44">
  <path class="st28" d="m166.6 296.5s0.1 0.3 0.3 0.8 0.4 1.3 0.7 2.3c0.6 1.9 1.4 4.7 2.3 8 1 3.2 2.2 6.9 3.9 10.5 0.4 0.9 0.9 1.8 1.4 2.6l0.1 0.2s0.1 0.1 0 0l0.1 0.1 0.2 0.4c0.1 0.2 0.3 0.5 0.4 0.7 0.3 0.4 0.5 0.8 0.8 1.2 1.2 1.7 2.5 3.3 4 4.9 1.4 1.6 3 3 4.6 4.4 0.8 0.7 1.7 1.4 2.4 2 0.4 0.3 0.9 0.7 1.3 1l1.2 0.9c3.3 2.4 6.6 4.3 9.6 5.8 1.5 0.7 2.9 1.4 4.2 1.9s2.4 1 3.4 1.3 1.7 0.6 2.2 0.7c0.5 0.2 0.8 0.3 0.8 0.3s-0.3 0-0.8 0.1-1.4 0.2-2.4 0.2-2.3 0.1-3.8 0-3.1-0.3-4.9-0.7c-3.5-0.8-7.6-2.2-11.6-4.4l-1.5-0.9c-0.5-0.3-0.9-0.6-1.4-0.9-1-0.7-2-1.3-2.9-2.1-1.9-1.4-3.7-3.1-5.4-4.9s-3.2-3.8-4.5-5.9c-0.3-0.5-0.6-1.1-1-1.6l-0.4-0.8-0.2-0.4-0.1-0.2-0.1-0.2c-0.5-1.1-1-2.2-1.3-3.3-1.5-4.4-2-8.6-2.2-12.2-0.1-3.6 0.1-6.5 0.2-8.5 0.1-1 0.2-1.8 0.3-2.4 0-0.6 0.1-0.9 0.1-0.9z"/>
 </g>
 <linearGradient id="bk" x1="408.81" x2="409.69" y1="305.38" y2="283.01" gradientUnits="userSpaceOnUse">
  <stop stop-color="#B1615D" offset="0"/>
  <stop stop-color="#A84E4E" offset=".1342"/>
  <stop stop-color="#912431" offset=".5"/>
  <stop stop-color="#6E2A35" offset=".8137"/>
  <stop stop-color="#5C2C37" offset="1"/>
 </linearGradient>
 <path class="st45" d="m396.6 297.5c-0.8-3.2-0.1-6.6 0.8-9.8 0.5-1.5 1-3 2-4.2 1.5-1.8 4-2.7 6.3-2.6 2.4 0 4.6 0.9 6.7 2.1 4.9 2.9 8.5 8 9.7 13.6-0.1-0.4-14.2 5.3-15.4 5.9-4.8 2.3-8.7 0.8-10.1-5z"/>
 <linearGradient id="bl" x1="502.82" x2="504.59" y1="315.79" y2="271.07" gradientUnits="userSpaceOnUse">
  <stop stop-color="#B1615D" offset="0"/>
  <stop stop-color="#A84E4E" offset=".1342"/>
  <stop stop-color="#912431" offset=".5"/>
  <stop stop-color="#6E2A35" offset=".8137"/>
  <stop stop-color="#5C2C37" offset="1"/>
 </linearGradient>
 <path class="st46" d="m488.1 274.3c-7 6.1-10.5 16-8.8 25.1 0.5 2.7 1.4 5.3 3.2 7.3 1.4 1.6 3.3 2.6 5.3 3.5 8.2 3.4 17.7 2.6 26.1-0.2 4.7-1.6 9.5-4.1 12.1-8.3 2.7-4.4 2.7-9.9 2.2-15-0.4-3.9-1.1-7.8-3.1-11.1-7-12.3-28-9.2-37-1.3z"/>
 <linearGradient id="bm" x1="489.9" x2="490.29" y1="242.42" y2="232.53" gradientUnits="userSpaceOnUse">
  <stop stop-color="#B1615D" offset="0"/>
  <stop stop-color="#A84E4E" offset=".1342"/>
  <stop stop-color="#912431" offset=".5"/>
  <stop stop-color="#6E2A35" offset=".8137"/>
  <stop stop-color="#5C2C37" offset="1"/>
 </linearGradient>
 <path class="st47" d="m488.4 233c-1.1 1.6-2.2 3.2-3.4 4.7-0.2 0.3-0.4 0.6-0.5 1s0.1 0.8 0.4 1.2c1 1.3 2.7 1.6 4.3 1.8 2 0.2 4.4 0 5.6-1.6 0.8-1.1 0.8-2.5 0.4-3.7s-1.2-2.3-2-3.3c-0.5-0.6-1.2-1.3-2-1.3-0.4 0-0.9 0.2-1.2 0.4-1.4 0.7-2.7 1.4-3.9 2.4"/>
 <linearGradient id="bn" x1="535.44" x2="536.64" y1="351.35" y2="321.01" gradientUnits="userSpaceOnUse">
  <stop stop-color="#B1615D" offset="0"/>
  <stop stop-color="#A84E4E" offset=".1342"/>
  <stop stop-color="#912431" offset=".5"/>
  <stop stop-color="#6E2A35" offset=".8137"/>
  <stop stop-color="#5C2C37" offset="1"/>
 </linearGradient>
 <path class="st48" d="m528.3 335.9c-0.3-1.9 0-3.9 0.2-5.8 0.4-3.1 1.1-6.2 2.9-8.7s5.4-3.9 8.2-2.6c2.8 1.4 3.8 4.9 4.1 8.1 0.6 5.3 0.3 10.6-0.7 15.8-0.7 3.8-3.7 8.4-7.9 5.7-3.1-2-6.3-9-6.8-12.5z"/>
 <linearGradient id="bo" x1="358.1" x2="358.87" y1="258.03" y2="238.68" gradientUnits="userSpaceOnUse">
  <stop stop-color="#B1615D" offset="0"/>
  <stop stop-color="#A84E4E" offset=".1342"/>
  <stop stop-color="#912431" offset=".5"/>
  <stop stop-color="#6E2A35" offset=".8137"/>
  <stop stop-color="#5C2C37" offset="1"/>
 </linearGradient>
 <path class="st49" d="m352.7 240.2c1.1-2.3 4-3.8 6.4-3 1.3 0.4 2.3 1.4 3 2.5 1.4 2 2 4.4 2.6 6.8 1.1 4.4-0.4 13.7-6.5 8.9-3.8-2.9-7.8-10.5-5.5-15.2z"/>
 <linearGradient id="bp" x1="383.54" x2="384.29" y1="298.85" y2="279.65" gradientUnits="userSpaceOnUse">
  <stop stop-color="#B1615D" offset="0"/>
  <stop stop-color="#A84E4E" offset=".1342"/>
  <stop stop-color="#912431" offset=".5"/>
  <stop stop-color="#6E2A35" offset=".8137"/>
  <stop stop-color="#5C2C37" offset="1"/>
 </linearGradient>
 <path class="st50" d="m378.7 278.7c1.2-0.8 2.7-0.9 4.2-0.8 2.9 0.2 5.9 1.4 7.5 3.8 2.8 4.2 1.2 18.2-6.2 15.5-5-1.8-11.2-14.7-5.5-18.5z"/>
 <linearGradient id="bq" x1="308.85" x2="309.58" y1="218.75" y2="200.42" gradientUnits="userSpaceOnUse">
  <stop stop-color="#B1615D" offset="0"/>
  <stop stop-color="#A84E4E" offset=".1342"/>
  <stop stop-color="#912431" offset=".5"/>
  <stop stop-color="#6E2A35" offset=".8137"/>
  <stop stop-color="#5C2C37" offset="1"/>
 </linearGradient>
 <path class="st51" d="m300.5 211.6c-0.6-0.4-1.1-0.8-1.4-1.4-0.2-0.6-0.1-1.3 0.2-2 1.1-3 3.8-5 6.5-6.7 2.4-1.5 5.1-3 7.9-2.5 2.6 0.5 4.7 2.8 5.4 5.4s0.3 5.4-0.7 7.9c-0.7 1.7-1.7 3.4-3.2 4.4-4.4 3-11.2-2.7-14.7-5.1z"/>
 <linearGradient id="bs" x1="356.66" x2="357.71" y1="406.82" y2="380.29" gradientUnits="userSpaceOnUse">
  <stop stop-color="#B1615D" offset="0"/>
  <stop stop-color="#A84E4E" offset=".1342"/>
  <stop stop-color="#912431" offset=".5"/>
  <stop stop-color="#6E2A35" offset=".8137"/>
  <stop stop-color="#5C2C37" offset="1"/>
 </linearGradient>
 <path class="st52" d="m349.9 396.2c-0.5-0.6-0.9-1.1-1.1-1.8-0.4-1-0.2-2.1 0-3.2 0.6-3.2 1.3-6.4 3-9.1 1.5-2.5 4.5-4.7 7.3-3.9 2.2 0.6 3.6 2.9 4.4 5.1 2.2 5.6 2.1 11.9 2 17.9 0 0.7-0.1 1.5-0.4 2.1-4 6.2-13.3-4.8-15.2-7.1z"/>
 <linearGradient id="bt" x1="298.16" x2="298.79" y1="422.12" y2="405.93" gradientUnits="userSpaceOnUse">
  <stop stop-color="#B1615D" offset="0"/>
  <stop stop-color="#A84E4E" offset=".1342"/>
  <stop stop-color="#912431" offset=".5"/>
  <stop stop-color="#6E2A35" offset=".8137"/>
  <stop stop-color="#5C2C37" offset="1"/>
 </linearGradient>
 <path class="st53" d="m295.1 419.5c-2.1-0.1-4.2-0.5-6-1.6-1.7-1.2-2.8-3.5-2.1-5.4 0.3-0.8 0.9-1.4 1.5-2 2.9-2.8 6.7-4.3 10.6-5.3 1.7-0.4 3.5-0.7 5.2-0.3 2.1 0.6 3.7 2.3 4.5 4.3 0.9 2 1.1 4.2 1 6.3 0 1.3-0.1 2.5-0.6 3.7-0.2 0.5-0.5 1-0.9 1.4-1.9 1.9-10.3-0.9-13.2-1.1z"/>
</svg>
